<?xml version="1.0" encoding="UTF-8"?> <!-- Generator: Adobe Illustrator 21.0.0, SVG Export Plug-In . SVG Version: 6.00 Build 0) --> <svg xmlns="http://www.w3.org/2000/svg" xmlns:xlink="http://www.w3.org/1999/xlink" id="Слой_1" x="0px" y="0px" viewBox="0 0 100 100" style="enable-background:new 0 0 100 100;" xml:space="preserve"> <style type="text/css"> .st0{fill:#3A3FFF;} .st1{enable-background:new ;} .st2{fill:#FFFFFF;} .st3{display:none;} .st4{display:inline;fill:#3A3FFF;} .st5{display:inline;} .st6{clip-path:url(#SVGID_2_);enable-background:new ;} .st7{fill:#1E2185;} .st8{clip-path:url(#SVGID_4_);enable-background:new ;} .st9{fill:#24279E;} .st10{clip-path:url(#SVGID_6_);fill:#3A3FFF;} .st11{fill:none;} .st12{fill:#FFFFFF;stroke:#3A3FFF;stroke-width:1.7;stroke-linejoin:bevel;stroke-miterlimit:10;} </style> <g id="_x33_"> <path class="st0" d="M87.7,77l-0.4-16l-4.8-2l-0.3-12.2l-14.2-5.8l-8.7,0.8l0-1.5l7-0.6l-0.4-16l-14.2-5.8l-19.7,1.7l0.4,16 l7.1,2.9l0.1,5l-22.8,2l0.4,14.5l-4.7,0.4l0.4,16L27,82.3L42.1,81L42,77.2l7.7,3.2L64.9,79l-0.1-3.8l7.7,3.1L87.7,77z M62.6,56.1 l-3,0.3l0-1.5l3-0.3L62.6,56.1z M39.8,58.1l-3,0.3l0-1.5l3-0.3L39.8,58.1z"></path> <g> <g class="st1"> <g> <polygon class="st0" points="82.5,61.4 68.3,55.6 73,55.2 87.2,61 "></polygon> </g> <polygon class="st0" points="76.8,61.9 76.6,53.4 62.4,47.6 62.6,56.1 57.9,56.5 58.3,72.5 72.5,78.3 72.1,62.4 "></polygon> <g> <polygon class="st0" points="59.7,63.4 45.5,57.6 50.3,57.2 64.5,63 "></polygon> </g> <g> <polygon class="st0" points="59.3,48.9 45.1,43.1 67.9,41.1 82.1,46.9 "></polygon> </g> <polygon class="st0" points="54,63.9 53.8,55.4 39.6,49.6 39.8,58.1 35.1,58.5 35.2,62.3 27.5,59.2 22.8,59.6 35.3,64.7 35.5,74.5 49.7,80.3 49.3,64.3 "></polygon> <polygon class="st0" points="53.4,40.9 46.3,37.9 46,25.5 65.7,23.8 51.5,17.9 31.8,19.7 32.2,35.7 39.3,38.6 39.4,43.6 16.7,45.6 17.1,60.1 12.3,60.5 12.8,76.5 27,82.3 26.5,66.3 31.3,65.9 30.9,51.4 53.7,49.4 "></polygon> <g> <g> <polygon class="st2" points="27.4,67.1 32.2,66.7 31.8,52.2 54.5,50.2 54.2,39.9 47.2,40.6 46.8,26.3 64.9,24.7 65.3,39 58.2,39.6 58.5,49.8 81.3,47.8 81.7,62.4 86.4,61.9 86.8,76.2 73.3,77.4 72.9,63.1 77.7,62.7 77.4,52.5 58.6,54.1 58.9,64.4 63.7,63.9 64,78.2 50.6,79.4 50.2,65.1 54.9,64.7 54.6,54.5 35.9,56.1 36.2,66.3 40.9,65.9 41.3,80.2 27.8,81.4 "></polygon> <path class="st0" d="M64,25.6l0.3,12.6L59,38.7l-1.6,0.1l0,1.6l0.2,8.5l0,1.8l1.8-0.2l21-1.8l0.3,12.7l0,1.8l1.8-0.2l2.9-0.3 l0.3,12.6l-11.8,1l-0.3-12.6l3.1-0.3l1.6-0.1l0-1.6l-0.2-8.5l0-1.8l-1.8,0.2l-17.1,1.5l-1.6,0.1l0,1.6l0.2,8.5l0,1.8l1.8-0.2 l2.9-0.3l0.3,12.6l-11.8,1L51,65.9l3.1-0.3l1.6-0.1l0-1.6l-0.2-8.5l0-1.8l-1.8,0.2l-17.1,1.5L35,55.3l0,1.6l0.2,8.5l0,1.8 l1.8-0.2l2.9-0.3l0.3,12.6l-11.8,1l-0.3-12.6l3.1-0.3l1.6-0.1l0-1.6l-0.3-12.9l21.2-1.9l1.6-0.1l0-1.6l-0.2-8.5l0-1.8l-1.8,0.2 l-5.2,0.5L47.7,27L64,25.6 M65.7,23.8L46,25.5l0.4,16l7-0.6l0.2,8.5l-22.8,2l0.4,14.5l-4.7,0.4l0.4,16L42.1,81l-0.4-16L37,65.4 l-0.2-8.5l17.1-1.5l0.2,8.5l-4.7,0.4l0.4,16L64.9,79l-0.4-16l-4.7,0.4l-0.2-8.5l17.1-1.5l0.2,8.5l-4.7,0.4l0.4,16L87.7,77 l-0.4-16l-4.7,0.4l-0.4-14.5l-22.8,2l-0.2-8.5l7-0.6L65.7,23.8L65.7,23.8z"></path> </g> </g> </g> </g> </g> <g id="_x32_" class="st3"> <path class="st4" d="M-77.9,20.4l-0.2-2.4l-1-0.7l-1.2,0.2l-7.4-3c-0.6-2.1,0.2-4.7,2.2-6.6l1.8-1.7l0-1.1l-1.6-1.7 c-1-1.2-2.2-2.3-3.5-3.3l-1.8-1.4l-1.2,0.2l-0.1,0.2l-11.6-4.7l-0.1-0.1l-0.1,0l-1.7-0.7l-0.4,0.6l-12-4.9l-2.3,0 c-0.8,0-1.6,0-2.4,0.1c-0.7,0.1-1.5,0.2-2.2,0.3l-2.3,0.4l0.3,2.4c0.3,2.1-0.2,4.1-1.2,5.7c-0.2,0.4-0.5,0.7-0.8,1 c-0.2,0.2-0.5,0.5-0.8,0.7c-0.2,0.1-0.4,0.3-0.6,0.4c0,0,0,0-0.1,0l-9-3.7l-1.7,1.7c0,0,0,0-0.1,0.1c-0.4,0.4-0.7,0.8-1.1,1.2 c-0.2,0.2-0.4,0.4-0.5,0.6c-0.5,0.6-1,1.3-1.5,1.9l-1.5,2l1.8,1.4c2.5,1.9,3.5,5,2.6,7.7c-0.1,0.3-0.2,0.5-0.4,0.8 c0,0.1-0.1,0.2-0.1,0.2c-0.1,0.2-0.2,0.4-0.4,0.5c0,0.1-0.1,0.1-0.1,0.2c-0.2,0.2-0.3,0.4-0.5,0.6c-0.3,0.2-0.5,0.5-0.8,0.7 c-0.2,0.2-0.5,0.3-0.7,0.4c-0.1,0-0.1,0.1-0.2,0.1c-0.2,0.1-0.4,0.2-0.6,0.2c-0.1,0.1-0.3,0.1-0.4,0.2c-0.2,0.1-0.3,0.1-0.5,0.2 c-0.1,0-0.3,0.1-0.4,0.1c-0.3,0.1-0.6,0.1-0.9,0.1c-0.3,0-0.6,0-0.9,0l-2.3,0l-0.1,2.4c-0.1,1.7,0,3.3,0.1,4.9l0.3,2.4l9.7,4 c0,0.1,0,0.2,0.1,0.3c0,0,0,0.1,0,0.1c0,0.2,0,0.4,0,0.7c0,0,0,0.1,0,0.1c0,0.2,0,0.5-0.1,0.7c0,0.1,0,0.1,0,0.2 c0,0.2-0.1,0.5-0.1,0.7c0,0,0,0,0,0.1c-0.1,0.2-0.2,0.5-0.2,0.7c0,0.1,0,0.1-0.1,0.2c-0.1,0.2-0.2,0.5-0.3,0.7c0,0,0,0.1,0,0.1 c-0.1,0.2-0.2,0.4-0.4,0.6c-0.4,0.6-0.8,1.1-1.3,1.6l-1.8,1.7l1.5,1.7c1,1.1,2.2,2.2,3.4,3.2l1.8,1.4l11.6,4.7 c0.1,0.1,0.2,0.2,0.3,0.3l1.8,1.4l1.2-0.2l0.5-0.7l10.4,4.3l0,0.3l0.8,0.9l2.3,0c0.8,0,1.7,0,2.5-0.1c0.8-0.1,1.5-0.2,2.3-0.3 l2.3-0.4l0.7-0.9l-0.3-2.4c-0.4-3,0.8-5.7,3-6.8c0.2-0.1,0.5-0.2,0.7-0.3l6.3,2.6l1,1.2l1.2,0l1.7-1.7c1.2-1.2,2.3-2.5,3.3-3.8 l1.5-2l-0.2-1.1l-1.8-1.4c-2.2-1.7-3.2-4.4-2.3-6.7c0.8-2.1,2.8-3.6,5.3-3.8c0.3,0,0.5,0,0.8,0l2.3,0l0.8-0.8l0.1-2.5 C-77.7,23.7-77.7,22-77.9,20.4z"></path> <g class="st5"> <g class="st1"> <g> <polygon class="st0" points="-89.8,48.7 -104,42.8 -105.6,41.1 -91.4,46.9 "></polygon> </g> <g class="st1"> <defs> <path id="SVGID_1_" class="st1" d="M-108.4,39l14.2,5.8c1,0.4,2,1.1,2.8,2.1l-14.2-5.8C-106.4,40.2-107.3,39.5-108.4,39z"></path> </defs> <clipPath id="SVGID_2_"> <use xlink:href="#SVGID_1_" style="overflow:visible;"></use> </clipPath> <g class="st6"> <path class="st7" d="M-91.4,46.9l-14.2-5.8c-0.8-0.9-1.8-1.6-2.8-2.1l14.2,5.8C-93.1,45.3-92.2,46-91.4,46.9"></path> </g> </g> <path class="st0" d="M-93.1,12.2l-2.3,0.4c-0.3,0.1-0.6,0.1-0.8,0.1c-1.2,0.1-2.3-0.1-3.3-0.5l14.2,5.8c1,0.4,2.1,0.6,3.3,0.5 c0.2,0,0.5-0.1,0.7-0.1c0,0,0.1,0,0.1,0l2.3-0.4L-93.1,12.2z"></path> <path class="st0" d="M-114.6,46.5l-14.2-5.8c2.3,1,3.8,3.7,3.5,6.9l-0.2,2.5l14.2,5.8l0.2-2.5C-110.9,50.2-112.3,47.4-114.6,46.5 z"></path> <g class="st1"> <defs> <path id="SVGID_3_" class="st1" d="M-110.1,32.1l-14.2-5.8c0.9,0.4,1.9,0.5,3,0.4l14.2,5.8C-108.2,32.6-109.2,32.5-110.1,32.1z "></path> </defs> <clipPath id="SVGID_4_"> <use xlink:href="#SVGID_3_" style="overflow:visible;"></use> </clipPath> <g class="st8"> <path class="st9" d="M-110.1,32.1l-14.2-5.8c0.9,0.4,1.9,0.5,3,0.4l14.2,5.8C-108.2,32.6-109.2,32.5-110.1,32.1"></path> </g> </g> <g class="st1"> <defs> <path id="SVGID_5_" class="st1" d="M-118.8,12.8l14.2,5.8c2.3,1,4,3.3,4.1,6.2c0.1,4-2.9,7.5-6.6,7.8l-14.2-5.8 c3.8-0.3,6.7-3.8,6.6-7.8C-114.8,16.1-116.5,13.7-118.8,12.8z"></path> </defs> <clipPath id="SVGID_6_"> <use xlink:href="#SVGID_5_" style="overflow:visible;"></use> </clipPath> <path class="st10" d="M-104.6,18.6l-14.2-5.8c2.3,1,4,3.3,4.1,6.2c0,1.7-0.4,3.2-1.3,4.5c-0.3,0.4-0.6,0.8-1,1.2 c-0.3,0.3-0.6,0.6-1,0.9c-0.4,0.3-0.8,0.5-1.2,0.7c-0.5,0.2-1.1,0.4-1.6,0.5c-0.2,0-0.4,0.1-0.6,0.1l14.2,5.8 c0.2,0,0.4,0,0.6-0.1c0.6-0.1,1.1-0.3,1.6-0.5c0.4-0.2,0.8-0.4,1.2-0.7c0.4-0.3,0.7-0.5,1-0.9c0.4-0.4,0.7-0.7,1-1.2 c0.9-1.3,1.4-2.9,1.3-4.5C-100.6,21.9-102.3,19.6-104.6,18.6z"></path> </g> <g> <path class="st0" d="M-105.3-6.6l-1.4,2c-0.3,0.4-0.7,0.8-1,1.2c-0.4,0.4-0.7,0.7-1.1,1c-0.4,0.3-0.8,0.5-1.2,0.7 c-0.5,0.2-1,0.4-1.5,0.5c-0.2,0-0.3,0-0.5,0.1c-0.7,0.1-1.4,0-2.1-0.3c-0.1,0-0.2-0.1-0.2-0.1l14.2,5.8c0.1,0,0.2,0.1,0.2,0.1 c0.7,0.2,1.4,0.3,2.1,0.3c0.2,0,0.3,0,0.5-0.1c0.5-0.1,1-0.2,1.5-0.5c0.4-0.2,0.8-0.4,1.2-0.7c0.4-0.3,0.8-0.6,1.1-1 c0.4-0.4,0.7-0.8,1-1.2l1.4-2L-105.3-6.6z"></path> </g> <path class="st11" d="M-110.4-4.7l-14.2-5.8c0.7-0.1,1.5-0.2,2.2-0.3c0.8-0.1,1.6-0.1,2.4-0.1l14.2,5.8c-0.8,0-1.6,0-2.4,0.1 C-109-5-109.7-4.9-110.4-4.7z"></path> <path class="st0" d="M-125.5,50.1c-1.2-1-2.3-2-3.4-3.2l-1.5-1.7l1.8-1.7c0,0,0.1-0.1,0.1-0.1c0.2-0.2,0.3-0.3,0.4-0.5 c0,0,0.1-0.1,0.1-0.1c0.2-0.3,0.4-0.5,0.6-0.8c0,0,0-0.1,0.1-0.1c0.1-0.2,0.3-0.4,0.4-0.6c0,0,0-0.1,0-0.1 c0.1-0.2,0.2-0.5,0.3-0.7c0-0.1,0-0.1,0.1-0.2c0.1-0.2,0.2-0.5,0.2-0.7c0,0,0,0,0-0.1c0.1-0.2,0.1-0.5,0.1-0.7c0-0.1,0-0.1,0-0.2 c0-0.2,0.1-0.5,0.1-0.7c0,0,0-0.1,0-0.1c0-0.2,0-0.4,0-0.7c0,0,0-0.1,0-0.1c0-0.2-0.1-0.5-0.1-0.7c0-0.1,0-0.1,0-0.2 c-0.1-0.2-0.1-0.5-0.2-0.7c-0.6-1.3-1.6-2.3-2.9-2.8l-6.7-2.8c-0.1-1.5-0.2-3-0.1-4.5l0.1-2.4l2.3,0c0.3,0,0.6,0,0.9,0 c0.2,0,0.5-0.1,0.7-0.1c0.1,0,0.1,0,0.2,0c0.1,0,0.3-0.1,0.4-0.1c0.2,0,0.4-0.1,0.5-0.2c0.1,0,0.3-0.1,0.4-0.2 c0.1,0,0.2-0.1,0.3-0.1c0.1,0,0.2-0.1,0.3-0.1c0.1,0,0.1-0.1,0.2-0.1c0.2-0.1,0.5-0.3,0.7-0.4c0,0,0,0,0,0 c0.3-0.2,0.6-0.4,0.8-0.7c0,0,0,0,0,0c0.2-0.2,0.3-0.4,0.5-0.6c0,0,0.1-0.1,0.1-0.2c0.1-0.1,0.1-0.1,0.2-0.2 c0.1-0.1,0.1-0.2,0.2-0.3c0-0.1,0.1-0.2,0.1-0.2c0.1-0.3,0.3-0.5,0.4-0.8c1-2.7-0.1-5.8-2.6-7.7l-1.8-1.4l1.5-2 c0.5-0.7,1-1.3,1.5-1.9c0.2-0.2,0.4-0.4,0.5-0.6c0.4-0.4,0.7-0.8,1.1-1.2l1.7-1.7l-14.2-5.8l-1.7,1.7c0,0,0,0-0.1,0.1 c-0.4,0.4-0.7,0.8-1.1,1.2c-0.2,0.2-0.4,0.4-0.5,0.6c-0.5,0.6-1,1.3-1.5,1.9l-1.5,2l1.8,1.4c2.5,1.9,3.5,5,2.6,7.7 c-0.1,0.3-0.2,0.5-0.4,0.8c0,0.1-0.1,0.2-0.1,0.2c-0.1,0.2-0.2,0.4-0.4,0.5c0,0.1-0.1,0.1-0.1,0.2c-0.2,0.2-0.3,0.4-0.5,0.6 c-0.3,0.2-0.5,0.5-0.8,0.7c-0.2,0.2-0.5,0.3-0.7,0.4c-0.1,0-0.1,0.1-0.2,0.1c-0.2,0.1-0.4,0.2-0.6,0.2c-0.1,0.1-0.3,0.1-0.4,0.2 c-0.2,0.1-0.3,0.1-0.5,0.2c-0.1,0-0.3,0.1-0.4,0.1c-0.3,0.1-0.6,0.1-0.9,0.1c-0.3,0-0.6,0-0.9,0l-2.3,0l-0.1,2.4 c-0.1,1.7,0,3.3,0.1,4.9l0.3,2.4l9.7,4c0,0.1,0,0.2,0.1,0.3c0,0,0,0.1,0,0.1c0,0.2,0,0.4,0,0.7c0,0,0,0.1,0,0.1 c0,0.2,0,0.5-0.1,0.7c0,0.1,0,0.1,0,0.2c0,0.2-0.1,0.5-0.1,0.7c0,0,0,0,0,0.1c-0.1,0.2-0.2,0.5-0.2,0.7c0,0.1,0,0.1-0.1,0.2 c-0.1,0.2-0.2,0.5-0.3,0.7c0,0,0,0.1,0,0.1c-0.1,0.2-0.2,0.4-0.4,0.6c-0.4,0.6-0.8,1.1-1.3,1.6l-1.8,1.7l1.5,1.7 c1,1.1,2.2,2.2,3.4,3.2l1.8,1.4l14.2,5.8L-125.5,50.1z"></path> <g> <path class="st0" d="M-117.7-10.9l-2.3,0c-0.8,0-1.6,0-2.4,0.1c-0.7,0.1-1.5,0.2-2.2,0.3l-2.3,0.4l0.3,2.4 c0.3,2.1-0.2,4.1-1.2,5.7c-0.2,0.4-0.5,0.7-0.8,1c-0.2,0.2-0.5,0.5-0.8,0.7c-0.2,0.1-0.4,0.3-0.6,0.4c-0.1,0.1-0.2,0.1-0.3,0.2 c-0.4,0.2-0.8,0.3-1.3,0.4c-0.2,0-0.3,0-0.5,0.1c-0.9,0.1-1.8-0.1-2.7-0.4l14.2,5.8c0.9,0.4,1.8,0.5,2.7,0.4 c0.2,0,0.3,0,0.5-0.1c0.4-0.1,0.9-0.2,1.3-0.4c0.1,0,0.2-0.1,0.3-0.2c0.2-0.1,0.4-0.2,0.6-0.4c0.3-0.2,0.5-0.4,0.8-0.7 c0.3-0.3,0.6-0.6,0.8-1c1-1.5,1.5-3.5,1.2-5.7l-0.3-2.4l2.3-0.4c0.7-0.1,1.5-0.2,2.2-0.3c0.8-0.1,1.6-0.1,2.4-0.1l2.3,0 L-117.7-10.9z"></path> </g> <g> <path class="st12" d="M-78.7,20.5c0.2,1.6,0.2,3.2,0.1,4.9l-0.1,2.4l-2.3,0c-0.3,0-0.6,0-0.9,0c-2.8,0.2-5.1,1.9-6,4.3 c-1,2.7,0.1,5.8,2.6,7.7l1.8,1.4l-1.5,2c-1,1.3-2.1,2.6-3.2,3.7l-1.7,1.7l-1.5-1.8c-1.5-1.7-3.5-2.7-5.5-2.5 c-0.7,0.1-1.4,0.3-2,0.6c-2.4,1.3-3.8,4.4-3.4,7.7l0.3,2.4l-2.3,0.4c-0.7,0.1-1.5,0.2-2.2,0.3c-0.8,0.1-1.6,0.1-2.4,0.1l-2.3,0 l0.2-2.5c0.2-3.3-1.3-6.2-3.8-7c-0.7-0.2-1.4-0.3-2.1-0.3c-1.9,0.2-3.9,1.4-5.3,3.4l-1.4,2l-1.8-1.4c-1.2-1-2.3-2-3.4-3.2 l-1.5-1.7l1.8-1.7c2.4-2.3,3.3-5.6,2.2-8.1c-1-2.3-3.4-3.5-6.2-3.3c-0.3,0-0.6,0.1-0.8,0.1l-2.3,0.4l-0.3-2.4 c-0.2-1.6-0.2-3.2-0.1-4.9l0.1-2.4l2.3,0c0.3,0,0.6,0,0.9,0c2.8-0.2,5.1-1.9,6-4.3c1-2.7-0.1-5.8-2.6-7.7l-1.8-1.4l1.5-2 c1-1.3,2.1-2.6,3.2-3.7l1.7-1.7l1.5,1.8c1.5,1.7,3.5,2.7,5.5,2.5c0.7-0.1,1.4-0.3,2-0.6c2.4-1.3,3.8-4.4,3.4-7.7l-0.3-2.4 l2.3-0.4c0.7-0.1,1.5-0.2,2.2-0.3c0.8-0.1,1.6-0.1,2.4-0.1l2.3,0l-0.2,2.4c-0.2,3.3,1.3,6.2,3.8,7c0.7,0.2,1.4,0.3,2.1,0.3 c2-0.2,3.9-1.4,5.3-3.4l1.4-2l1.8,1.4c1.2,1,2.3,2,3.4,3.2l1.6,1.7l-1.8,1.7c-2.4,2.3-3.3,5.6-2.2,8.1c1,2.3,3.4,3.6,6.2,3.3 c0.3,0,0.6-0.1,0.8-0.1l2.3-0.4L-78.7,20.5z M-107.2,32.6c3.8-0.3,6.7-3.8,6.6-7.8c-0.1-4-3.3-6.9-7-6.6 c-3.8,0.3-6.7,3.8-6.6,7.8C-114.1,29.9-110.9,32.9-107.2,32.6"></path> </g> </g> </g> </g> <g id="_x31_" class="st3"> <path class="st4" d="M93.6,48.7c-1.9-1.9-17.5-16.6-32-19l-7-2.9c-2.1-0.9-4.3-1.6-6.4-2c-1.6-0.3-3.2-0.5-4.7-0.5 c-0.5,0-1,0-1.5,0.1l0,0c-0.5,0-1.1,0.1-1.6,0.2c-2.1,0.4-4.3,1.1-6.5,2.1c-2.7,1.2-5.4,2.8-8,4.7c-4.8,3.4-9.2,7.4-12.6,10.8 c-4,4-6.6,7.2-7,7.6c0.8,0.8,12,11.7,24.2,16.7l5.7,2.3c6.1,3.7,13.1,6.8,19.6,6.8c0.6,0,1.1,0,1.7-0.1 c15.7-1.4,34.2-23.2,36.2-25.7L93.6,48.7z"></path> <g class="st5"> <g class="st1"> <path class="st11" d="M52.2,63.8L38,57.9c1.5,0.6,3.2,0.9,4.9,0.7l14.2,5.8C55.4,64.6,53.7,64.4,52.2,63.8z"></path> <g> <path class="st0" d="M61.4,41.2l-14.2-5.8c3.9,1.6,6.7,5.5,6.8,10.3c0.1,2.8-0.7,5.4-2.2,7.5c-0.5,0.7-1,1.4-1.6,2 c-0.5,0.5-1.1,1-1.7,1.4c-0.6,0.4-1.3,0.8-1.9,1.1c-0.9,0.4-1.7,0.7-2.7,0.8c-0.3,0.1-0.6,0.1-1,0.1c-1.7,0.2-3.4-0.1-4.9-0.7 l14.2,5.8c1.5,0.6,3.2,0.9,4.9,0.7c0.3,0,0.7-0.1,1-0.1c0.9-0.2,1.8-0.4,2.7-0.8c0.7-0.3,1.3-0.7,1.9-1.1 c0.6-0.4,1.2-0.9,1.7-1.4c0.6-0.6,1.1-1.2,1.6-2c1.4-2.2,2.3-4.8,2.2-7.5C68.1,46.7,65.3,42.8,61.4,41.2z"></path> </g> <path class="st11" d="M45.4,39.9l14.2,5.8c-0.9-0.4-1.9-0.5-3-0.4l-14.2-5.8C43.5,39.4,44.5,39.6,45.4,39.9z"></path> <g> <path class="st0" d="M45.4,39.9c-0.9-0.4-1.9-0.5-3-0.4c-0.2,0-0.4,0-0.6,0.1c-0.6,0.1-1.1,0.3-1.6,0.5 c-0.4,0.2-0.8,0.4-1.2,0.7c-0.4,0.3-0.7,0.5-1,0.9c-0.4,0.4-0.7,0.7-1,1.2c-0.9,1.3-1.4,2.9-1.3,4.5c0.1,2.9,1.7,5.2,4.1,6.2 l14.2,5.8c-2.3-1-4-3.3-4.1-6.2c0-1.7,0.4-3.2,1.3-4.5c0.3-0.4,0.6-0.8,1-1.2c0.3-0.3,0.6-0.6,1-0.9c0.4-0.3,0.8-0.5,1.2-0.7 c0.5-0.2,1-0.4,1.6-0.5c0.2,0,0.4-0.1,0.6-0.1c1.1-0.1,2.1,0.1,3,0.4L45.4,39.9z"></path> </g> <g> <path class="st12" d="M56.6,45.3c3.8-0.3,6.9,2.6,7,6.6s-2.9,7.5-6.6,7.8c-3.8,0.3-6.9-2.6-7-6.6C49.9,49.1,52.9,45.6,56.6,45.3 z"></path> </g> <path class="st11" d="M54.7,26.8l14.2,5.8c-4.2-1.7-8.6-2.8-12.7-2.4L42,24.4C46.1,24.1,50.5,25.1,54.7,26.8z"></path> <path class="st11" d="M44.8,72.3l-14.2-5.8c-12.2-5-23.4-15.9-24.2-16.7l14.2,5.8C21.3,56.4,32.5,67.3,44.8,72.3z"></path> <g> <path class="st12" d="M56.2,30.3c15.9-1.4,35.8,18,36.9,19.1c-1,1.2-19.8,24-35.7,25.4c-15.8,1.4-35.8-18-36.9-19.1 C21.5,54.5,40.4,31.6,56.2,30.3z M57.2,64.5c6.3-0.6,11.2-6.4,11.1-13c-0.2-6.6-5.4-11.5-11.7-11c-6.3,0.5-11.2,6.4-11.1,13 S50.9,65,57.2,64.5"></path> </g> <g> <path class="st0" d="M54.7,26.8c-4.2-1.7-8.6-2.8-12.7-2.4c-0.5,0-1.1,0.1-1.6,0.2c-2.1,0.4-4.3,1.1-6.5,2.1 c-2.7,1.2-5.4,2.8-8,4.7c-4.8,3.4-9.2,7.4-12.6,10.8c-4,4-6.6,7.2-7,7.6c0.8,0.8,12,11.7,24.2,16.7l14.2,5.8 c-12.2-5-23.4-15.9-24.2-16.7c0.4-0.4,3-3.6,7-7.6c3.4-3.4,7.8-7.5,12.6-10.8c2.6-1.8,5.3-3.4,8-4.7c2.2-1,4.3-1.7,6.5-2.1 c0.5-0.1,1.1-0.2,1.6-0.2c4.1-0.4,8.4,0.7,12.7,2.4L54.7,26.8z"></path> </g> </g> </g> </g> </svg> 