<?xml version="1.0" encoding="UTF-8"?> <!-- Generator: Adobe Illustrator 21.0.0, SVG Export Plug-In . SVG Version: 6.00 Build 0) --> <svg xmlns="http://www.w3.org/2000/svg" xmlns:xlink="http://www.w3.org/1999/xlink" id="Слой_1" x="0px" y="0px" viewBox="0 0 672 289" style="enable-background:new 0 0 672 289;" xml:space="preserve"> <style type="text/css"> .st0{display:none;} .st1{display:inline;} .st2{fill:#FFFFFF;} .st3{display:inline;fill:#FFFFFF;} </style> <g class="st0"> <g class="st1"> <path class="st2" d="M258.9,176.6h38.5l18-37.1c0,0-7.5-8.4-13.1-18.3c-4-6.9-7-13.6-7-13.6L258.9,176.6z"></path> <path class="st2" d="M351.6,0.3l-16.9,32.4C317.5,9.5,311,0.3,311,0.3s1.4,37.4,20.4,78.6c18.5,39.8,53.4,83.3,112.8,97.7 L351.6,0.3z"></path> </g> <path class="st3" d="M297.4,38c0,0,16.6,90,105,132C342.7,154.9,294.9,118,297.4,38z"></path> </g> <g class="st0"> <path class="st3" d="M34.1,261.9L10.6,288H0.2v-1.2l4.6-2l22.3-24.2l-20-20.4l-5.7-2V237h17.5v1.2l-5.5,2.6L34.1,261.9z M28,288 v-1.2l6.1-3.1v-42.3l-6.1-3.1v-1.2h19.3v1.2l-6.1,3.1v42.3l6.1,3.1v1.2H28z M41.2,261.9l20.6-21l-5.5-2.6v-1.2h17v1.2l-5.7,2 L48,260.2l23,24.7l4.6,2v1.2H64.5L41.2,261.9z"></path> <path class="st3" d="M81.9,288v-1.2l6.1-3.1v-42.3l-6.1-3.1v-1.2h19.4v1.2l-6.1,3.1v42.3l6.1,3.1v1.2H81.9z M95.2,261.9l21.4-21 l-5.5-2.6v-1.2h16.2v1.2l-4.8,1.8l-20.4,20l24.4,24.8l4.7,2v1.2h-11L95.2,261.9z"></path> <path class="st3" d="M168.7,282.6L153.3,269l15.4-13.6h0.9L161,269l8.6,13.6H168.7z M182.7,282.6L167.3,269l15.4-13.6h0.9L175,269 l8.6,13.6H182.7z"></path> <path class="st3" d="M187.7,288v-1.2l5-2.6l19.7-47.5h3.5l19.5,47.3l5.2,2.8v1.2h-19.2v-1.2l6.8-2.6l-5.8-14.3h-18.8l-5.8,14.3 l6.5,2.6v1.2C204.3,288,187.7,288,187.7,288z M205.3,265.6h15.3l-7.7-19L205.3,265.6z"></path> <path class="st3" d="M248.1,288v-1.2l5.6-2.6v-35.6l-5.6-2.6v-1.2h17.6v1.2l-5.5,2.6v35.7l5.5,2.6v1.2L248.1,288L248.1,288z M281.9,288l-21.7-22.1l18-17.8l-4.8-2.2v-1.2h15.4v1.2l-4.6,1.7L267,264.1l20.4,20.5l5.5,2.1v1.2L281.9,288L281.9,288z"></path> <path class="st3" d="M300.5,288v-1.2l5.5-2.6v-35.6l-5.5-2.6v-1.2h15.7c5.4,0,9.4,0.9,12.3,2.5c2.8,1.6,4.2,4.1,4.2,7.5 c0,2.5-0.8,4.6-2.2,6.4c-1.5,1.8-3.6,3.1-6.1,3.7c3.8,0.6,6.9,1.8,9.1,3.6c2.2,1.8,3.4,4.2,3.4,7c0,2.4-0.8,4.5-2.3,6.3 c-1.5,1.9-3.6,3.4-6.4,4.4c-2.8,1.1-6,1.6-9.5,1.6L300.5,288L300.5,288z M315.3,248.5h-2.7v15.1h2.9c3.1,0,5.7-0.6,7.6-1.8 c2-1.2,3-3.2,3-6c0-2.4-1-4.2-2.8-5.5C321.4,249.2,318.8,248.5,315.3,248.5z M317.9,267.5h-5.3v16.6h5.8c3.4,0,6.1-0.7,8.4-2 c2.1-1.3,3.2-3.5,3.2-6.3c0-3.2-1.1-5.3-3.3-6.5C324.5,268.1,321.5,267.5,317.9,267.5z"></path> <path class="st3" d="M341.8,288v-1.2l3.9-2l17.2-40.4h3.3l17.1,40.3l4.5,2.1v1.2H371v-1.2l5.4-2.2l-4.9-11.7h-16l-4.9,11.9l5.8,2 v1.2L341.8,288L341.8,288z M357,269h12.9l-6.5-15.7L357,269z"></path> <path class="st3" d="M401.4,288v-1.2l6.9-2.6v-35.6h-11.9l-3.7,9h-1.2v-12.9H432v12.9h-1.2l-3.8-9h-11.9v35.6l6.9,2.6v1.2H401.4z"></path> <path class="st3" d="M462,288.7c-4.2,0-8-1-11.3-2.9c-3.4-1.9-6-4.6-7.9-8s-2.9-7.2-2.9-11.5s1-8.2,2.9-11.6s4.5-6,7.9-8 s7.1-2.9,11.3-2.9c4.3,0,8.1,1,11.4,2.9s6,4.6,7.9,8s2.9,7.3,2.9,11.6c0,4.3-1,8.2-2.9,11.5c-1.9,3.4-4.5,6-7.9,8 C470.1,287.8,466.3,288.7,462,288.7z M463.4,284.9c4.4,0,7.9-1.5,10.5-4.5c2.5-3.1,3.7-7,3.7-12.1c0-4-0.7-7.7-2.1-10.8 c-1.3-3.1-3.4-5.5-5.9-7.2s-5.4-2.6-8.6-2.6c-4.4,0-8,1.5-10.5,4.5c-2.6,3-3.8,7-3.8,12c0,4.1,0.7,7.8,2.1,10.9 c1.4,3.1,3.4,5.6,5.9,7.3C457.2,284,460.1,284.9,463.4,284.9z"></path> <path class="st3" d="M494.7,288v-1.2l5.6-2.6v-35.6l-5.6-2.6v-1.2h17.2c11.8,0,17.7,4.1,17.7,12.3c0,2.6-0.8,4.9-2.4,6.8 s-3.8,3.4-6.6,4.3c-2.8,1-6,1.5-9.7,1.5h-4v14.5l6.3,2.6v1.2L494.7,288L494.7,288z M506.8,248.5v17.2h4.2c3.6,0,6.3-0.8,8.5-2.3 c2.2-1.5,3.2-3.6,3.2-6.4c0-3.1-1.1-5.2-3.2-6.5c-2.1-1.3-5.1-2-8.8-2L506.8,248.5L506.8,248.5z"></path> <path class="st3" d="M538.7,288v-1.2l5.5-2.6v-35.6l-5.5-2.6v-1.2h17.8v1.2l-5.8,2.6v29l23.9-26.5v-2.6l-5.8-2.6v-1.3h17.7v1.2 l-5.4,2.6v35.7l5.4,2.6v1.2h-17.7v-1.2l5.8-2.6v-28.4L550.8,282v2.1l5.8,2.6v1.2L538.7,288L538.7,288z"></path> <path class="st3" d="M603.3,288h-10v-1.2l4.7-2.3l12.3-16.1c-3.6-0.9-6.4-2.4-8.4-4.4c-1.9-2.1-2.9-4.3-2.9-6.7 c0-4,1.5-7.1,4.7-9.2c3.1-2.1,8-3.2,14.6-3.2h16.6v1.2l-5.6,2.6v35.7l5.6,2.6v1.2h-17.2V287l5.1-2.6v-14.8h-6.5L603.3,288z M618.2,265.8h4.8v-17.3h-4.4c-4.2,0-7.4,0.8-9.4,2.2c-2,1.5-3.1,3.6-3.1,6.1s1.1,4.7,3.1,6.3C611.2,264.9,614.2,265.8,618.2,265.8 z"></path> <path class="st3" d="M641.5,282.6l8.6-13.6l-8.6-13.6h0.9l15.4,13.6l-15.4,13.6H641.5z M655.4,282.6L664,269l-8.6-13.6h0.9 l15.4,13.6l-15.4,13.6H655.4z"></path> </g> <path id="path42" class="st2" d="M300.4,131.5c-2.4,8.8-7.6,23.1-10.9,29.2c-5.5,1.3-22,5.3-35.9,5.3c-48.4,0-69.9-32-69.9-61 c0-38.6,31.2-63.9,74.7-63.9c16.1,0,29.6,4.5,34.9,5.3c1.4,10.3,2.9,18.2,4,28.7l-5.6,1.3c-5.2-20.4-17.8-28.4-38.2-28.4 c-32,0-49,25.9-49,53.1c0,34.6,21.1,57.7,50.6,57.7c19.4,0,30.2-10.3,39.9-29.3L300.4,131.5L300.4,131.5z"></path> <g id="g44" transform="translate(214.42178,708.091)"> <path id="path46" class="st2" d="M97.1-545v-5.3c15.4-1.1,16.9-2.3,16.9-18.1v-72.4c0-15.9-1.6-17.1-16.9-18.1v-5.5h51.1v5.5 c-15.2,1-16.8,2.2-16.8,18.1v72.4c0,15.8,1.6,16.9,16.8,18.1v5.3H97.1z"></path> </g> <g id="g48" transform="translate(285.93648,772.2033)"> <path id="path50" class="st2" d="M154-724.3c-21.1,0-41.1,17.2-41.1,51.9c0,33.8,20,59.2,46.8,59.2c21.1,0,40.4-16.8,40.4-52.3 C200.1-703.9,178.9-724.3,154-724.3L154-724.3z M158.2-731.2c33,0,62.8,24.1,62.8,60.8c0,39.6-29.7,64.1-65.4,64.1 c-35.2,0-63.3-26-63.3-61.3C92.2-700.9,117.2-731.2,158.2-731.2C158-731.2,158.2-731.2,158.2-731.2z"></path> </g> <g id="g52" transform="translate(274.15931,668.25307)"> <path id="path54" class="st2" d="M144.6-433.7l-5.5-16.5l-5.5,16.5H144.6z M153.6-420.5H149l-3.6-10.1h-13.2l-3.2,10.1h-3.7 l11.5-34.3h5C142.1-454.8,153.6-420.5,153.6-420.5z"></path> </g> <g id="g56" transform="translate(296.34191,660.86827)"> <path id="path58" class="st2" d="M162.3-413H158l-18.4-29.9v2.3c0,0.9,0.1,1.6,0.1,2.2v25.6h-3.6v-34.3h5.6l17.2,28v-2.4 c0-1,0-1.7,0-2.4v-23.1h3.4v34.2H162.3z"></path> </g> <g id="g60" transform="translate(303.76091,662.90047)"> <path id="path62" class="st2" d="M168.1-418.8h7.2c3.9,0,6.8-1.3,8.6-3.9c2-2.6,3-5.9,3-10.1c0-3.4-1-6.5-2.9-9.2s-4.9-4-8.8-4 h-7.2V-418.8z M163.7-415v-34.3h11.9c5,0,8.9,1.6,11.8,4.9c2.7,3.3,4.2,7.3,4.2,12.1c0,4.9-1.3,8.9-4,12.2c-2.7,3.3-6.2,5-10.3,5 C177-415,163.7-415,163.7-415z"></path> </g> <g id="g64" transform="translate(208.13491,662.90047)"> <path id="path66" class="st2" d="M92.1-418.8h7.2c3.9,0,6.8-1.3,8.6-3.9c2-2.6,3-5.9,3-10.1c0-3.4-1-6.5-2.9-9.2s-4.9-4-8.8-4h-7.2 V-418.8z M87.6-415v-34.3h11.9c5,0,8.9,1.6,11.6,4.9c2.7,3.3,4.2,7.3,4.2,12.1c0,4.9-1.3,8.9-4,12.2c-2.7,3.3-6.2,5-10.3,5 C101-415,87.6-415,87.6-415z"></path> </g> <g id="g68" transform="translate(237.64861,662.96987)"> <path id="path70" class="st2" d="M115.6-418.9v3.7h-23v-34.3H115v3.7H97v10.9h14.4v3.4H97v12.4h18.5V-418.9z"></path> </g> <g id="g72" transform="translate(260.20721,660.86827)"> <path id="path74" class="st2" d="M133.4-413h-4.3v-30l-11.5,30h-3l-11.6-30v30h-3.7v-34.3h6.6l10.8,27.4l10.5-27.4h6.5L133.4-413z"></path> </g> <g id="g76" transform="translate(190.66231,660.86827)"> <path id="path78" class="st2" d="M78.3-413h-4.3l-18.4-29.9v2.3c0,0.9,0.1,1.6,0.1,2.2v25.6h-3.6v-34.3h5.6l17.2,28v-2.4 c0-1,0-1.7,0-2.4v-23.1h3.4v34.2H78.3z"></path> </g> <g id="g80" transform="translate(168.00311,677.90147)"> <path id="path82" class="st2" d="M60.2-460.6c-2.4-2.4-5.5-3.9-8.9-4.6v3.7c2.3,0.6,4.3,1.6,5.9,3c2.7,2.4,4,5.9,4,10.3 c0,4.3-1.3,7.8-3.9,10.5c-2.6,2.7-6.2,4-10.8,4c-4.5,0-8-1.3-10.8-3.9c-2.7-2.6-4-6-4-10.2c0-4.3,1.3-7.8,4-10.5 c1.7-1.7,4-2.9,6.6-3.4v-3.6c-3.6,0.7-6.5,2.2-8.9,4.6c-3.4,3.3-5,7.6-5,12.8c0,5,1.6,9.2,4.9,12.5c3.3,3.4,7.8,5.2,13.5,5.2 c5.9,0,10.5-1.9,13.8-5.5c3.3-3.6,4.9-7.8,4.9-12.6C65.2-453.2,63.5-457.3,60.2-460.6"></path> </g> <path id="path84" class="st2" d="M217.1,228.3h-4.9v-22h4.9V228.3z"></path> </svg> 