<?xml version="1.0" encoding="UTF-8"?> <!-- Generator: Adobe Illustrator 21.0.0, SVG Export Plug-In . SVG Version: 6.00 Build 0) --> <svg xmlns="http://www.w3.org/2000/svg" xmlns:xlink="http://www.w3.org/1999/xlink" id="Слой_1" x="0px" y="0px" viewBox="0 0 150 150" style="enable-background:new 0 0 150 150;" xml:space="preserve"> <style type="text/css"> .st0{fill:#FFFFFF;} </style> <g> <path class="st0" d="M106.9,51.4c-1.6-4.1-4.5-7.8-8.7-10.2c-4.2-2.4-8.8-3.1-13.3-2.3C68.7,41.5,54.8,50,44.4,61.6 c-3.3,3.6-5.4,8.3-5.4,13.5c0,4.7,1.8,8.9,4.5,12.4c9,11.9,26.9,22.2,41.6,23.7c4.4,0.4,9,0,13.1-2.3c4.6-2.6,7.6-6.8,9.1-11.4 C112.1,82.8,112.7,66.6,106.9,51.4z M66,78.7L66,78.7c-1.6,1.5-3.6,1.7-5.4,1.7h-1.3l0.9-3.3l1.4,0c1.4,0.1,2.4-0.6,2.8-1.8 L67.7,63H64l0.9-3.3h3.7h0.2h3.4L68,75.3C67.6,76.7,66.9,77.8,66,78.7z M97.2,81.2L98,82l-7.7,8l1.1,0.5L87,100l-1.4-0.6l4-8.6 l-3.5,3.6l-1.1-1l10.7-11.2L79.5,92.9l-0.8-1.3l10.7-7.1H88l0,0c-2.3-0.1-3.8-2-3.1-4.3h-7.3l0,0c0,0-0.1,0-0.1,0 c-4.4,0-7.1-2.6-7.1-6.8c0-4.6,3.8-9.4,9.3-9.4c4,0,6.3,2.6,6.3,6c0,1.1-0.4,2.5-0.8,3.7l-8.3,0l0.9-3.2h4.5 c0.1-0.2,0.1-0.6,0.1-0.9c0-1.4-1-2.3-3-2.3c-2.5,0-5,2.1-5.5,4.9C73.4,75,74.2,77,77.6,77v0h8.2l3.5-13H93l-1.8,6.5h3.6l-0.9,3.2 h-3.6l-1.8,6.5c-0.2,0.6,0.2,1,0.7,1.1h2.6l-0.5,1.9l10-6.6l0.8,1.3L97.2,81.2z"></path> </g> </svg> 