<?xml version="1.0" encoding="UTF-8"?>
<!-- Generator: Adobe Illustrator 21.0.0, SVG Export Plug-In . SVG Version: 6.00 Build 0) -->
<svg xmlns="http://www.w3.org/2000/svg" xmlns:xlink="http://www.w3.org/1999/xlink" id="Слой_1" x="0px" y="0px" viewBox="0 0 148 38" style="enable-background:new 0 0 148 38;" xml:space="preserve"> <style type="text/css"> .st0{fill:#3A3FFF;} </style> <path class="st0" d="M24.1,14.2c-0.9,2-1.8,4-2.9,6c-1.1,2.1-2.2,4.1-3.4,6.1c-1.2,2-2.4,3.9-3.5,5.7c-1.2,1.8-2.3,3.4-3.3,4.8H4.2 c-0.4-2.1-0.8-4.5-1.2-7.2C2.6,27,2.2,24.1,1.9,21c-0.3-3-0.6-6.3-0.9-9.6C0.8,8.1,0.6,4.6,0.5,1.1h8.2c0,1.9,0,4,0.1,6.2 c0,2.2,0.1,4.5,0.2,6.8c0.1,2.3,0.3,4.6,0.4,6.8c0.2,2.2,0.4,4.3,0.7,6.3c1.3-2,2.5-4,3.8-6.2c1.3-2.2,2.4-4.4,3.6-6.7 c1.1-2.3,2.2-4.5,3.2-6.7c1-2.2,1.8-4.3,2.6-6.3h7.1c0,1.9,0,3.8,0.1,5.9c0,2.1,0.1,4.3,0.2,6.5c0.1,2.2,0.2,4.5,0.4,6.8 c0.2,2.3,0.4,4.6,0.6,6.8c1.2-1.7,2.4-3.7,3.6-5.9c1.2-2.2,2.4-4.5,3.6-6.9c1.1-2.3,2.2-4.7,3.1-7c0.9-2.3,1.7-4.4,2.3-6.2h8.6 c-1,2.7-2.1,5.6-3.5,8.7c-1.4,3.1-3,6.2-4.7,9.3c-1.7,3.1-3.6,6.2-5.6,9.2c-2,3-4.1,5.8-6.2,8.4h-6.8c-0.5-3.8-0.9-7.6-1.3-11.3 C24.4,21.8,24.2,18,24.1,14.2z M78.9,23c-0.1,0.5-0.3,1.3-0.4,2.5c-0.1,1.1-0.2,2.2-0.2,3.2c0,1.3,0.1,2.6,0.3,3.9 c0.2,1.3,0.6,2.5,1.1,3.8l-7.4,1.1c-0.5-1.1-1-2.3-1.3-3.5c-1.1,1-2.5,1.9-4.2,2.7c-1.7,0.8-3.5,1.2-5.6,1.2c-2.1,0-4-0.4-5.5-1.1 C54.2,36,53,35,52,33.8c-1-1.3-1.7-2.7-2.1-4.4c-0.5-1.7-0.7-3.5-0.7-5.5c0-3.3,0.6-6.4,1.8-9.3c1.2-2.9,2.8-5.3,4.9-7.4 c2.1-2.1,4.6-3.7,7.5-4.9C66.4,1,69.6,0.4,73,0.4c1.8,0,3.6,0.1,5.4,0.4c1.8,0.3,3.6,0.9,5.4,1.7L78.9,23z M74.4,7.5 c-0.9-0.2-1.8-0.3-2.9-0.3c-2,0-3.9,0.4-5.7,1.3c-1.7,0.9-3.2,2.1-4.5,3.5c-1.3,1.5-2.2,3.2-2.9,5.1c-0.7,1.9-1,3.9-1,6 c0,1,0.1,2,0.3,2.9c0.2,0.9,0.5,1.7,0.9,2.4c0.4,0.7,1,1.2,1.7,1.6c0.7,0.4,1.7,0.6,2.8,0.6c1.5,0,2.7-0.3,3.9-0.9 c1.1-0.6,2.1-1.4,3.1-2.5c0-1.2,0.1-2.3,0.3-3.3c0.2-1,0.4-2.1,0.6-3.1L74.4,7.5z M90.8,36.8c-1.2-4.6-2.2-10-3.1-16.1 C86.8,14.6,86.2,8,85.9,1.1h8.5c0,2,0.1,4.2,0.2,6.5c0.1,2.3,0.3,4.7,0.5,7c0.2,2.3,0.4,4.6,0.7,6.8c0.3,2.2,0.5,4.2,0.9,5.9 c1.2-1.5,2.5-3.4,3.8-5.6c1.4-2.2,2.7-4.4,4-6.8c1.3-2.4,2.4-4.8,3.5-7.2c1-2.4,1.9-4.6,2.5-6.6h8.6c-1.1,3.1-2.5,6.4-4.1,9.7 c-1.6,3.3-3.4,6.6-5.3,9.7c-1.9,3.1-3.9,6.1-5.9,8.9c-2,2.8-4,5.3-5.8,7.4H90.8z M115.5,23.9c0-3,0.5-6,1.5-8.8 c1-2.8,2.4-5.4,4.2-7.6c1.8-2.2,4.1-4,6.7-5.3c2.6-1.3,5.5-2,8.7-2c3.5,0,6.1,0.9,8.1,2.7s2.9,4.1,2.9,6.8c0,2.9-0.7,5.2-2.1,7 c-1.4,1.8-3.2,3.2-5.5,4.2c-2.3,1-4.8,1.7-7.6,2c-2.8,0.4-5.7,0.6-8.6,0.7c0,0.1-0.1,0.2-0.1,0.3v0.7c0,4.1,2.6,6.2,7.8,6.2 c3.1,0,6.2-0.6,9.3-1.9l0.7,6.7c-1.1,0.5-2.6,1-4.6,1.5c-2,0.5-4.3,0.8-6.8,0.8c-2.5,0-4.7-0.4-6.6-1.1c-1.8-0.7-3.3-1.7-4.5-3 c-1.2-1.3-2-2.7-2.6-4.4C115.8,27.6,115.5,25.8,115.5,23.9z M135.4,7c-1.4,0-2.7,0.3-3.9,0.8c-1.2,0.5-2.3,1.3-3.3,2.3 c-1,1-1.8,2.1-2.5,3.4c-0.7,1.3-1.2,2.7-1.5,4.2c5.5-0.2,9.4-0.8,11.9-2c2.5-1.1,3.7-2.8,3.7-5.1c0-0.9-0.3-1.7-1-2.5 C138.1,7.4,137,7,135.4,7z"/> </svg>