<?xml version="1.0" encoding="UTF-8"?> <!-- Generator: Adobe Illustrator 21.0.0, SVG Export Plug-In . SVG Version: 6.00 Build 0) --> <svg xmlns="http://www.w3.org/2000/svg" xmlns:xlink="http://www.w3.org/1999/xlink" id="Слой_1" x="0px" y="0px" viewBox="0 0 421 469" style="enable-background:new 0 0 421 469;" xml:space="preserve"> <style type="text/css"> .st0{fill:#3A3FFF;} .st1{enable-background:new ;} .st2{fill:#FFFFFF;} </style> <polyline class="st0" points="240.2,468.8 420.7,343.5 415.1,112.1 229.1,6 180.8,0.2 0.3,125.5 5.9,357 191.9,463 240.2,468.8 "></polyline> <g> <g class="st1"> <g> <g> <polygon class="st2" points="61.6,358.3 56.2,135.1 229.5,14.8 407.7,116.5 413.1,339.6 239.8,459.9 "></polygon> <path class="st0" d="M229.9,23.7l170.4,97.2l5.1,214.9L239.4,451L69,353.8L63.8,139L229.9,23.7 M229.1,6L48.6,131.3l5.5,231.4 l186,106.1l180.5-125.3l-5.5-231.4L229.1,6L229.1,6z"></path> </g> </g> <polygon class="st0" points="54.2,362.7 48.6,131.3 229.1,6 180.8,0.2 0.3,125.5 5.9,357 191.9,463 240.2,468.8 "></polygon> </g> </g> </svg> 