<?xml version="1.0" encoding="utf-8"?>
<!-- Generator: Adobe Illustrator 24.0.3, SVG Export Plug-In . SVG Version: 6.00 Build 0)  -->
<svg version="1.1" xmlns="http://www.w3.org/2000/svg" xmlns:xlink="http://www.w3.org/1999/xlink" x="0px" y="0px"
	 viewBox="0 0 720 716" style="enable-background:new 0 0 720 716;" xml:space="preserve">
<style type="text/css">
	.st0{display:none;}
	.st1{display:inline;}
	.st2{fill:#3A3FFF;}
	.st3{enable-background:new    ;}
	.st4{fill:none;}
	.st5{fill:#E6E6E6;stroke:#3A3FFF;stroke-width:3;stroke-miterlimit:10;}
	.st6{fill:#222594;}
	.st7{fill:#FFFFFF;}
	.st8{fill:#FFFFFF;stroke:#3A3FFF;stroke-width:3;stroke-miterlimit:10;}
</style>
<g id="Слой_1">
	<g id="Слой_1_1_" class="st0">
		<g class="st1">
			<path class="st2" d="M715.9,345.5c-1.2-49.9-11.8-97.7-31.6-141.9c-19.1-42.8-45.6-80-78.9-110.9C550,41.3,480.3,13,407.4,11.8
				l-43.2-5.1c-16.2-2-32.8-2.4-49.5-1.7h-0.1h-0.1c-1.5,0.1-3,0.2-4.5,0.3c-0.9,0.1-1.7,0.1-2.6,0.2c-1.6,0.1-3.2,0.3-4.8,0.4
				c-0.9,0.1-1.7,0.2-2.6,0.2c-1.6,0.2-3.2,0.3-4.7,0.5c-0.9,0.1-1.8,0.2-2.7,0.3c-1.6,0.2-3.1,0.4-4.7,0.6
				c-0.9,0.1-1.8,0.3-2.7,0.4c-1.5,0.2-3.1,0.5-4.6,0.7c-0.9,0.2-1.8,0.3-2.7,0.5c-1.5,0.3-3.1,0.5-4.6,0.8c-0.1,0-0.2,0-0.2,0
				c-3.5,0.7-7,1.5-10.5,2.3c-1.1,0.2-2.1,0.5-3.2,0.8c-1.3,0.3-2.7,0.7-4,1c-1,0.3-2.1,0.5-3.1,0.8c-1.4,0.4-2.8,0.8-4.2,1.2
				c-0.9,0.3-1.8,0.5-2.7,0.8c-1.5,0.5-3.1,0.9-4.6,1.4c-0.6,0.2-1.2,0.4-1.7,0.6C100.5,63.6,0.2,206.7,4.1,370.3
				c4.2,173.7,124.6,312,277.4,330.2l43.8,5.2c20.7,4.6,42,7,63.5,7c5.1,0,10.3-0.1,15.4-0.4C580.7,703,720.5,538.5,715.9,345.5z
				 M388.1,43.7c4.6-0.2,9.2-0.4,13.8-0.4c120.2,34.1,210,151.4,213.6,294.9c0.1,2.5,0.1,5,0.1,7.4c0,0.9,0,1.8,0,2.7
				c0,1.6,0,3.2-0.1,4.7c0,1,0,2.1-0.1,3.1c0,1.4-0.1,2.9-0.1,4.3c0,1.1-0.1,2.2-0.1,3.2c-0.1,1.5-0.2,3.1-0.3,4.6
				c-0.1,2-0.3,4.1-0.4,6.1c-0.1,1-0.2,2-0.2,3c-0.1,1.5-0.3,3-0.4,4.4c-0.1,0.8-0.2,1.6-0.3,2.5c-0.2,1.6-0.4,3.2-0.5,4.8
				c-0.1,0.5-0.1,1.1-0.2,1.6c-6.3,50.1-23.3,96.9-48.2,137.4c-14.6,23.6-31.9,45.2-51.5,64.1c-1,0.9-2,1.9-2.9,2.8
				c-0.4,0.4-0.8,0.7-1.2,1.1c-16.1,14.9-33.6,28-52.3,39.1c0,0,0,0-0.1,0c-2,1.2-4.1,2.4-6.1,3.5c-0.1,0.1-0.2,0.1-0.3,0.2
				c-2.1,1.1-4.2,2.3-6.3,3.4c-0.3,0.2-0.7,0.3-1,0.5c-1.6,0.8-3.1,1.6-4.7,2.4c-1.1,0.5-2.2,1.1-3.3,1.6c-0.8,0.4-1.6,0.7-2.3,1.1
				c-1.3,0.6-2.7,1.2-4,1.9c-0.5,0.2-0.9,0.4-1.4,0.6c-1.4,0.6-2.9,1.3-4.4,1.9c-1,0.4-2.1,0.9-3.1,1.3c-1,0.4-1.9,0.8-2.9,1.2
				c-2.1,0.8-4.3,1.7-6.4,2.4c-0.2,0.1-0.3,0.1-0.5,0.2c-2,0.7-4.1,1.5-6.2,2.2c-0.4,0.1-0.9,0.3-1.3,0.4c-1.8,0.6-3.6,1.2-5.4,1.7
				c-0.5,0.2-1.1,0.3-1.6,0.5c-1.7,0.5-3.4,1-5.1,1.5c-0.6,0.2-1.2,0.3-1.8,0.5c-1.7,0.5-3.4,0.9-5.1,1.3c-0.6,0.2-1.2,0.3-1.8,0.5
				c-1.8,0.4-3.6,0.9-5.4,1.3c-0.5,0.1-1,0.2-1.5,0.3c-2.2,0.5-4.4,0.9-6.5,1.4c-1.1,0.2-2.2,0.4-3.4,0.6c-1.1,0.2-2.2,0.4-3.3,0.6
				c-1.3,0.2-2.7,0.4-4,0.6c-0.9,0.1-1.7,0.3-2.6,0.4c-1.4,0.2-2.9,0.4-4.3,0.6c-0.8,0.1-1.5,0.2-2.3,0.3c-1.5,0.2-3,0.4-4.5,0.5
				c-0.7,0.1-1.4,0.1-2.1,0.2c-1.6,0.1-3.2,0.3-4.8,0.4c-0.5,0-1.1,0.1-1.6,0.1c-1.7,0.1-3.3,0.2-5,0.3c-1,0-2,0.1-3,0.1
				c-44.8-10.8-86.8-33.3-122.3-66.2c-30.3-28-54.4-62-71.8-100.8c-18-40.3-27.7-83.7-28.8-129.2C100.3,201.9,227.5,52.1,388.1,43.7
				z"/>
		</g>
		<g class="st1">
			<g class="st3">
				<path class="st4" d="M361.6,35.1l73,8.6c140.3,16.6,250.9,143.6,254.7,303.1c4.2,176.4-123.6,326.9-284.9,335.3l-73-8.6
					c161.3-8.5,289.1-158.9,284.9-335.3C612.3,178.8,501.9,51.7,361.6,35.1z"/>
				<g>
					<path class="st2" d="M689.2,346.9C685.4,187.4,574.9,60.3,434.5,43.7l-73-8.6c140.3,16.6,250.9,143.6,254.7,303.1
						c1.7,69.8-17.4,135.5-50.9,190c-16,26-35.3,49.4-57.4,69.6c-23.6,21.6-50.3,39.3-79.1,52.1c-30.4,13.6-63.1,21.8-97.6,23.6
						c-15.4,0.8-30.7,0.3-45.6-1.5l73,8.6c15,1.8,30.1,2.3,45.6,1.5c34.3-1.8,67.2-10,97.6-23.6c28.8-12.8,55.6-30.7,79.1-52.1
						c22.1-20.1,41.4-43.5,57.4-69.6C671.8,482.4,690.9,416.7,689.2,346.9z"/>
				</g>
				<path class="st4" d="M355.2,709.1l-73-8.6C129.4,682.3,9,544,4.8,370.3C0.3,178.2,139.4,14.3,315.2,5.1l73,8.6
					c-175.7,9.2-315,173.1-310.4,365.2C82,552.6,202.4,691,355.2,709.1z"/>
				<g>
					<path class="st5" d="M388.2,13.7c175.7-9.2,322.3,139.6,327,331.8c4.5,192.1-134.6,356-310.2,365.2
						C229.3,720,82.5,571.2,77.9,378.9C73.2,186.8,212.5,22.9,388.2,13.7z M404.2,682.2c161.3-8.5,289.1-158.9,284.9-335.3
						c-4.2-176.4-139-313.1-300.3-304.7s-289.3,158.9-285,335.3C108.1,554,242.9,690.7,404.2,682.2"/>
				</g>
				<g>
					<path class="st2" d="M364.9,6.7c-16.2-2-32.8-2.4-49.5-1.7c-37.5,2-73.3,10.9-106.2,25.7c-31.4,14-60.4,33.4-86.2,56.8
						c-24,21.9-45,47.4-62.5,75.8c-36.7,59.4-57.3,131-55.5,207c4.2,173.7,124.4,312,277.4,330.2l73,8.6
						C202.5,691,82.2,552.6,77.9,378.9c-1.8-76,18.9-147.6,55.4-206.9c17.5-28.4,38.5-53.9,62.5-75.8c25.7-23.4,54.7-42.7,86.2-56.8
						c33.1-14.8,68.9-23.7,106.2-25.7c16.8-0.9,33.4-0.3,49.5,1.7L364.9,6.7z"/>
				</g>
			</g>
		</g>
	</g>
	<g id="Слой_2_1_">
		<polygon class="st2" points="318.3,563 391.2,571.7 385,314.4 312.1,305.7 		"/>
		<path class="st2" d="M189.6,308.8l73,8.6l0,0l34.7-1.8c-0.3-23.9,4.5-39.2,13.2-47.5c4.9,2.3,9.9,4.8,15.2,7.3
			c13.1,5.9,24,10.6,33.8,14c2.7,1.1,5.4,2,8,2.7c1.4,0.5,2.6,0.8,3.8,1.2c7.4,2.3,14.2,3.6,20.7,4.4l66.2,7.8
			c6.3,1.2,12.3,1.7,18.4,1.7c1.8,0,3.6,0,5.4-0.2c35.6-2,67.7-28.8,63-98.2h0.3H545c0-0.1,0-0.2,0-0.3l-1.6,0.1l-71.1-8.4
			l-34.1,1.8c0,1.1,0,2.3,0,3.3c0,0.3,0,0.8,0,1.1c0,0.8,0,1.4,0,2.1c0,0.5,0,0.8,0,1.2c0,0.6,0,1.2-0.2,1.8c0,0.5,0,0.9,0,1.2
			c0,0.6,0,1.2-0.2,1.7c0,0.5,0,0.9-0.2,1.2c0,0.6-0.2,1.1-0.2,1.7c0,0.5-0.2,0.9-0.2,1.2c0,0.5-0.2,1.1-0.2,1.5s-0.2,0.8-0.2,1.2
			c0,0.5-0.2,1.1-0.2,1.5c0,0.5-0.2,0.8-0.2,1.2c-0.2,0.5-0.2,0.9-0.3,1.4c0,0.3-0.2,0.8-0.2,1.1c-0.2,0.5-0.2,0.9-0.3,1.4
			c-0.2,0.3-0.2,0.8-0.3,1.1c-0.2,0.5-0.2,0.9-0.3,1.4c-0.2,0.3-0.2,0.6-0.3,1.1c-0.2,0.5-0.3,0.9-0.5,1.4c-0.2,0.3-0.2,0.6-0.3,0.9
			c-0.2,0.5-0.3,0.9-0.5,1.4c-0.2,0.3-0.2,0.5-0.3,0.8c-0.2,0.6-0.5,1.1-0.6,1.7c0,0.2-0.2,0.3-0.2,0.3c-0.3,0.6-0.6,1.4-0.9,2
			c-0.2,0.2-0.2,0.3-0.3,0.6c-0.2,0.5-0.5,0.9-0.6,1.2c-0.2,0.3-0.3,0.5-0.3,0.6c-0.2,0.3-0.5,0.8-0.6,1.1c-0.2,0.2-0.3,0.5-0.5,0.6
			c-0.2,0.3-0.5,0.8-0.8,1.1c-0.2,0.2-0.3,0.5-0.5,0.6c-0.3,0.3-0.5,0.6-0.8,0.9c-0.2,0.2-0.3,0.5-0.5,0.6c-0.3,0.3-0.5,0.6-0.8,0.9
			c-0.2,0.2-0.3,0.3-0.5,0.6c-0.3,0.3-0.5,0.6-0.8,0.8c0,0,0,0-0.1,0.1c-4.9-2.2-10-4.6-15.3-7.2c-30.6-14.1-48.5-21.7-66.4-23.7
			h0.1h-0.4l0,0l-72.6-8.6c-5.1-0.6-10.3-0.8-15.6-0.5c-1.2,0-2.3,0.2-3.3,0.3c-0.3,0-0.8,0.2-1.1,0.2c-0.8,0.2-1.5,0.2-2.3,0.3
			c-0.5,0-0.8,0.2-1.2,0.2c-0.8,0.2-1.4,0.3-2.1,0.5c-0.5,0.2-0.8,0.2-1.2,0.3c-0.8,0.2-1.5,0.3-2.1,0.6c-0.3,0.2-0.8,0.2-1.1,0.3
			c-1.1,0.3-2,0.6-2.9,0.9h-0.2c-1.1,0.3-2.1,0.8-3,1.1c-0.3,0.2-0.6,0.3-0.9,0.5c-0.5,0.2-1.1,0.5-1.5,0.6
			c-0.2,0.2-0.5,0.2-0.6,0.3c-0.3,0.2-0.5,0.3-0.8,0.3c-0.8,0.5-1.7,0.8-2.4,1.2c-0.2,0-0.3,0.2-0.5,0.2c-0.9,0.5-1.8,1.1-2.7,1.5
			c-0.2,0.2-0.5,0.3-0.6,0.5c-0.8,0.5-1.5,0.9-2.1,1.4c-0.2,0.2-0.3,0.3-0.6,0.5c-0.9,0.6-1.7,1.2-2.6,1.8c-0.2,0.2-0.3,0.3-0.6,0.5
			c-0.6,0.6-1.4,1.1-2,1.7c-0.2,0.2-0.5,0.3-0.6,0.6c-0.2,0.2-0.3,0.2-0.5,0.3c-0.2,0.2-0.5,0.5-0.6,0.6c-0.8,0.8-1.5,1.4-2.1,2.1
			c-0.3,0.3-0.6,0.8-1.1,1.1c-0.8,0.8-1.4,1.5-2.1,2.3c-0.3,0.3-0.6,0.6-0.8,0.9c-0.9,1.1-1.8,2.3-2.7,3.5c-0.2,0.2-0.3,0.3-0.3,0.6
			c-0.8,1.1-1.4,2.1-2.1,3.2c-0.2,0.2-0.2,0.3-0.3,0.5c-0.3,0.5-0.5,0.9-0.8,1.4s-0.6,0.9-0.8,1.4c-0.5,0.6-0.8,1.4-1.1,2.1
			c-0.3,0.5-0.5,0.9-0.8,1.4c-0.5,0.8-0.8,1.5-1.1,2.4c-0.2,0.5-0.5,0.8-0.6,1.2c-0.5,1.2-1.1,2.4-1.5,3.6v0.2
			c-0.5,1.2-0.9,2.6-1.4,3.9c-0.2,0.5-0.3,0.9-0.5,1.4c-0.3,0.9-0.6,1.8-0.9,2.7c-0.2,0.6-0.3,1.1-0.5,1.7c-0.3,0.9-0.5,1.7-0.8,2.6
			c-0.2,0.6-0.3,1.2-0.5,1.8c-0.2,0.9-0.5,1.7-0.6,2.6c-0.2,0.6-0.3,1.4-0.5,2c-0.2,0.9-0.3,1.7-0.5,2.6c-0.2,0.6-0.2,1.4-0.3,2
			c-0.2,0.9-0.3,1.8-0.5,2.7c-0.2,0.8-0.2,1.4-0.3,2.1c-0.2,0.9-0.2,1.8-0.3,2.7c0,0.8-0.2,1.4-0.2,2.1c-0.2,0.9-0.2,2-0.2,2.9
			c0,0.8-0.2,1.4-0.2,2.1c0,1.1-0.2,2.1-0.2,3.2c0,0.8,0,1.4,0,2.1c0,1.2,0,2.4,0,3.6c0,0.6,0,1.2,0,1.8c0,1.8,0.2,3.6,0.2,5.6v-0.1
			L189.6,308.8L189.6,308.8z M504,249.8c0.1-0.3,0.2-0.5,0.4-0.7C504.3,249.4,504.1,249.6,504,249.8z M501.1,254.5
			c-0.2,0.3-0.4,0.5-0.6,0.8c0.1-0.1,0.2-0.2,0.2-0.3C500.9,254.8,501,254.6,501.1,254.5z M340.8,218.1L340.8,218.1L340.8,218.1z
			 M332.5,217.8c-0.3,0-0.5,0-0.8,0c0.1,0,0.2,0,0.3,0C332.2,217.8,332.4,217.8,332.5,217.8z M263.3,290.1c0-0.1,0-0.3,0.1-0.4
			c-0.2,1.3-0.3,2.6-0.4,3.9c0-0.2,0-0.4,0-0.6C263.2,292.1,263.2,291.2,263.3,290.1z M262.5,300.7c0,1-0.1,2-0.1,3
			c0-0.1,0-0.3,0-0.4C262.4,302.4,262.4,301.6,262.5,300.7z M262.5,316.3c-0.1-1.4-0.1-2.9-0.1-4.3
			C262.4,313.5,262.5,314.9,262.5,316.3z"/>
		<polygon class="st2" points="385,314.4 391.2,571.7 434.6,569.4 428.8,328.9 		"/>
		<g class="st3">
			<path class="st6" d="M471,264.3l-73-8.6c3.8,0.5,7.6,0.6,11.3,0.5c3.6-0.2,6.9-0.9,9.8-2.3l73,8.6c-2.9,1.4-6.2,2.1-9.8,2.3
				C478.5,264.9,474.8,264.7,471,264.3"/>
			<path class="st2" d="M504.7,250.1c0.2-0.5,0.5-0.9,0.6-1.2c0.2-0.2,0.2-0.3,0.3-0.6c0.3-0.6,0.6-1.2,0.9-2c0-0.2,0.2-0.3,0.2-0.3
				c0.2-0.6,0.5-1.1,0.6-1.7c0.2-0.3,0.2-0.5,0.3-0.8c0.2-0.5,0.3-0.9,0.5-1.4c0.2-0.3,0.2-0.6,0.3-0.9c0.2-0.5,0.3-0.9,0.5-1.4
				c0.2-0.3,0.2-0.6,0.3-1.1c0.2-0.5,0.2-0.9,0.3-1.4c0.2-0.3,0.2-0.8,0.3-1.1c0.2-0.5,0.2-0.9,0.3-1.4c0-0.3,0.2-0.8,0.2-1.1
				c0.2-0.5,0.2-0.9,0.3-1.4c0-0.5,0.2-0.8,0.2-1.2c0-0.5,0.2-0.9,0.2-1.5c0-0.5,0.2-0.8,0.2-1.2c0-0.5,0.2-1.1,0.2-1.5
				c0-0.5,0.2-0.9,0.2-1.2c0-0.6,0.2-1.1,0.2-1.7c0-0.5,0-0.9,0.2-1.2c0-0.6,0.2-1.1,0.2-1.7c0-0.5,0-0.9,0.2-1.2
				c0-0.6,0-1.2,0.2-1.8c0-0.5,0-0.8,0-1.2c0-0.6,0-1.4,0-2.1c0-0.3,0-0.8,0-1.1c0-1.1,0-2.1,0-3.2v-0.2l34.1-1.8l-73-8.6l-34.1,1.8
				c0,1.1,0,2.3,0,3.3c0,0.3,0,0.8,0,1.1c0,0.8,0,1.4,0,2.1c0,0.5,0,0.8,0,1.2c0,0.6,0,1.2-0.2,1.8c0,0.5,0,0.9,0,1.2
				c0,0.6,0,1.2-0.2,1.7c0,0.5,0,0.9-0.2,1.2c0,0.6-0.2,1.1-0.2,1.7c0,0.5-0.2,0.9-0.2,1.2c0,0.5-0.2,1.1-0.2,1.5
				c0,0.5-0.2,0.8-0.2,1.2c0,0.5-0.2,1.1-0.2,1.5c0,0.5-0.2,0.8-0.2,1.2c-0.2,0.5-0.2,0.9-0.3,1.4c0,0.3-0.2,0.8-0.2,1.1
				c-0.2,0.5-0.2,0.9-0.3,1.4c-0.2,0.3-0.2,0.8-0.3,1.1c-0.2,0.5-0.2,0.9-0.3,1.4c-0.2,0.3-0.2,0.6-0.3,1.1
				c-0.2,0.5-0.3,0.9-0.5,1.4c-0.2,0.3-0.2,0.6-0.3,0.9c-0.2,0.5-0.3,0.9-0.5,1.4c-0.2,0.3-0.2,0.5-0.3,0.8
				c-0.2,0.6-0.5,1.1-0.6,1.7c0,0.2-0.2,0.3-0.2,0.3c-0.3,0.6-0.6,1.4-0.9,2c-0.2,0.2-0.2,0.3-0.3,0.6c-0.2,0.5-0.5,0.9-0.6,1.2
				c-0.2,0.3-0.3,0.5-0.3,0.6c-0.2,0.3-0.5,0.8-0.6,1.1c-0.2,0.2-0.3,0.5-0.5,0.6c-0.2,0.3-0.5,0.8-0.8,1.1
				c-0.2,0.2-0.3,0.5-0.5,0.6c-0.3,0.3-0.5,0.6-0.8,0.9c-0.2,0.2-0.3,0.5-0.5,0.6c-0.3,0.3-0.5,0.6-0.8,0.9
				c-0.2,0.2-0.3,0.3-0.5,0.6c-0.3,0.3-0.5,0.6-0.8,0.8c-0.2,0.2-0.3,0.3-0.5,0.5c-0.3,0.3-0.6,0.6-0.9,0.8
				c-0.2,0.2-0.3,0.3-0.5,0.3c-0.5,0.3-0.9,0.8-1.5,1.1c0,0-0.2,0-0.2,0.2c-0.5,0.3-0.9,0.6-1.4,0.9c-0.2,0.2-0.3,0.2-0.6,0.3
				c-0.3,0.2-0.8,0.3-1.1,0.6c-3,1.4-6.3,2.1-10,2.4c-3.8,0.2-7.6,0-11.3-0.5l73,8.6c3.8,0.5,7.6,0.6,11.3,0.5
				c3.6-0.2,6.8-0.9,9.8-2.3l0,0c0,0,0.2,0,0.2-0.2c0.3-0.2,0.8-0.3,1.1-0.6c0.2-0.2,0.3-0.2,0.6-0.3c0.5-0.3,0.9-0.6,1.4-0.9
				c0,0,0.2,0,0.2-0.2c0.5-0.3,1.1-0.8,1.5-1.1c0.2-0.2,0.3-0.3,0.5-0.3c0.3-0.3,0.6-0.6,0.9-0.8l0.2-0.2c0.2-0.2,0.3-0.3,0.3-0.3
				c0.3-0.3,0.6-0.5,0.8-0.8c0.2-0.2,0.3-0.3,0.5-0.6c0.3-0.3,0.5-0.6,0.8-0.9c0.2-0.2,0.3-0.5,0.5-0.6c0.3-0.3,0.5-0.6,0.8-0.9
				c0.2-0.2,0.3-0.5,0.5-0.6c0.3-0.3,0.5-0.8,0.8-1.1c0.2-0.2,0.2-0.3,0.3-0.5c0,0,0-0.2,0.2-0.2c0.2-0.3,0.5-0.8,0.6-1.1
				C504.4,250.5,504.5,250.4,504.7,250.1z"/>
		</g>
		<g>
			<polygon class="st2" points="392,571.7 319,563 312.8,305.7 385.8,314.4 			"/>
		</g>
		<g>
			<path class="st2" d="M399.4,284.1c-23.4-11.2-42.3-21.3-60-23.4l-73-8.6c17.7,2.1,36.6,12.2,60,23.4c13.1,5.9,24,10.6,33.8,14
				c2.7,1.1,5.4,2,8,2.7c1.4,0.5,2.6,0.8,3.8,1.2c7.4,2.3,14.2,3.6,20.7,4.4l73,8.6C448.3,304.5,429.3,297.7,399.4,284.1z"/>
		</g>
		<path class="st2" d="M344.4,218.4l-73-8.6c-5.1-0.6-10.3-0.8-15.6-0.5c-1.2,0-2.3,0.2-3.3,0.3c-0.3,0-0.8,0.2-1.1,0.2
			c-0.8,0.2-1.5,0.2-2.3,0.3c-0.5,0-0.8,0.2-1.2,0.2c-0.8,0.2-1.4,0.3-2.1,0.5c-0.5,0.2-0.8,0.2-1.2,0.3c-0.8,0.2-1.5,0.3-2.1,0.6
			c-0.3,0.2-0.8,0.2-1.1,0.3c-1.1,0.3-2,0.6-2.9,0.9h-0.2c-1.1,0.3-2.1,0.8-3,1.1c-0.3,0.2-0.6,0.3-0.9,0.5
			c-0.5,0.2-1.1,0.5-1.5,0.6c-0.2,0.2-0.5,0.2-0.6,0.3c-0.3,0.2-0.5,0.3-0.8,0.3c-0.8,0.5-1.7,0.8-2.4,1.2c-0.2,0-0.3,0.2-0.5,0.2
			c-0.9,0.5-1.8,1.1-2.7,1.5c-0.2,0.2-0.5,0.3-0.6,0.5c-0.8,0.5-1.5,0.9-2.1,1.4c-0.2,0.2-0.3,0.3-0.6,0.5c-0.9,0.6-1.7,1.2-2.6,1.8
			c-0.2,0.2-0.3,0.3-0.6,0.5c-0.6,0.6-1.4,1.1-2,1.7c-0.2,0.2-0.5,0.3-0.6,0.6c-0.2,0.2-0.3,0.2-0.5,0.3c-0.2,0.2-0.5,0.5-0.6,0.6
			c-0.8,0.8-1.5,1.4-2.1,2.1c-0.3,0.3-0.6,0.8-1.1,1.1c-0.8,0.8-1.4,1.5-2.1,2.3c-0.3,0.3-0.6,0.6-0.8,0.9c-0.9,1.1-1.8,2.3-2.7,3.5
			c-0.2,0.2-0.3,0.3-0.3,0.6c-0.8,1.1-1.4,2.1-2.1,3.2c-0.2,0.2-0.2,0.3-0.3,0.5c-0.3,0.5-0.5,0.9-0.8,1.4s-0.6,0.9-0.8,1.4
			c-0.5,0.6-0.8,1.4-1.1,2.1c-0.3,0.5-0.5,0.9-0.8,1.4c-0.5,0.8-0.8,1.5-1.1,2.4c-0.2,0.5-0.5,0.8-0.6,1.2c-0.5,1.2-1.1,2.4-1.5,3.6
			v0.2c-0.5,1.2-0.9,2.6-1.4,3.9c-0.2,0.5-0.3,0.9-0.5,1.4c-0.3,0.9-0.6,1.8-0.9,2.7c-0.2,0.6-0.3,1.1-0.5,1.7
			c-0.3,0.9-0.5,1.7-0.8,2.6c-0.2,0.6-0.3,1.2-0.5,1.8c-0.2,0.9-0.5,1.7-0.6,2.6c-0.2,0.6-0.3,1.4-0.5,2c-0.2,0.9-0.3,1.7-0.5,2.6
			c-0.2,0.6-0.2,1.4-0.3,2c-0.2,0.9-0.3,1.8-0.5,2.7c-0.2,0.8-0.2,1.4-0.3,2.1c-0.2,0.9-0.2,1.8-0.3,2.7c0,0.8-0.2,1.4-0.2,2.1
			c-0.2,0.9-0.2,2-0.2,2.9c0,0.8-0.2,1.4-0.2,2.1c0,1.1-0.2,2.1-0.2,3.2c0,0.8,0,1.4,0,2.1c0,1.2,0,2.4,0,3.6c0,0.6,0,1.2,0,1.8
			c0,1.8,0.2,3.6,0.2,5.6v1.1l73,8.6v-1.1c-0.2-1.8-0.2-3.8-0.2-5.6c0-0.6,0-1.2,0-1.8c0-1.2,0-2.4,0-3.6c0-0.8,0-1.4,0-2.1
			c0-1.1,0-2.1,0.2-3.2c0-0.8,0.2-1.4,0.2-2.1c0-1.1,0.2-2,0.2-2.9c0-0.8,0.2-1.4,0.2-2.1c0.2-0.9,0.2-1.8,0.3-2.9
			c0.2-0.8,0.2-1.4,0.3-2.1c0.2-0.9,0.3-1.8,0.5-2.7c0.2-0.8,0.2-1.4,0.3-2c0.2-0.9,0.3-1.8,0.5-2.6c0.2-0.6,0.3-1.4,0.5-2
			c0.2-0.9,0.3-1.7,0.6-2.6c0.2-0.6,0.3-1.2,0.5-1.8c0.2-0.9,0.5-1.7,0.8-2.6c0.2-0.6,0.3-1.1,0.5-1.7c0.3-0.9,0.6-1.8,0.9-2.7
			c0.2-0.5,0.3-0.9,0.5-1.4c0.5-1.4,0.9-2.6,1.4-3.9V262c0.5-1.2,0.9-2.4,1.5-3.6c0.2-0.5,0.5-0.8,0.6-1.2c0.3-0.8,0.8-1.7,1.1-2.4
			c0.3-0.5,0.5-0.9,0.8-1.4c0.3-0.8,0.8-1.4,1.1-2.1c0.3-0.5,0.6-0.9,0.8-1.4c0.3-0.6,0.8-1.2,1.1-1.7c0.8-1.1,1.4-2.1,2.1-3.2
			c0.2-0.2,0.3-0.3,0.3-0.6c0.9-1.2,1.8-2.4,2.7-3.5c0.3-0.3,0.6-0.6,0.8-0.9c0.6-0.8,1.4-1.5,2.1-2.3c0.3-0.3,0.6-0.8,1.1-1.1
			c0.8-0.8,1.4-1.5,2.1-2.1c0.3-0.3,0.6-0.6,1.1-0.9c0.2-0.2,0.5-0.3,0.6-0.6c0.6-0.6,1.4-1.1,2-1.7c0.2-0.2,0.3-0.3,0.6-0.5
			c0.8-0.6,1.7-1.2,2.6-1.8c0.2-0.2,0.3-0.3,0.6-0.5c0.8-0.5,1.4-0.9,2.1-1.4c0.2-0.2,0.5-0.3,0.6-0.5c0.9-0.6,1.8-1.1,2.7-1.5
			c0.2,0,0.3-0.2,0.5-0.2c0.8-0.5,1.7-0.8,2.4-1.2c0.3-0.2,0.5-0.3,0.8-0.3c0.8-0.3,1.4-0.6,2.1-0.9c0.3-0.2,0.6-0.3,0.9-0.5
			c1.1-0.5,2-0.8,3-1.1h0.2c0.9-0.3,2-0.6,2.9-0.9c0.3-0.2,0.8-0.2,1.1-0.3c0.8-0.2,1.5-0.3,2.1-0.6c0.5-0.2,0.8-0.2,1.2-0.3
			c0.8-0.2,1.4-0.3,2.1-0.5c0.5,0,0.8-0.2,1.2-0.2c0.8-0.2,1.5-0.2,2.3-0.3c0.3,0,0.8-0.2,1.1-0.2c1.1-0.2,2.3-0.2,3.3-0.3
			c1.4,0,2.7-0.2,3.9-0.2C336.7,217.8,340.6,217.9,344.4,218.4L344.4,218.4L344.4,218.4z"/>
		<g>
			<g>
				<path class="st7" d="M265.6,315c-1.2-28.5,4.5-52.4,16.6-69.2c11.3-15.7,27.5-24.6,47-25.7c1.7-0.2,3.3-0.2,5-0.2
					c21.1,0,39.3,7.4,75.8,24.2l0.9,0.5c27.6,13,47.7,22.4,68.3,22.4l0,0c1.2,0,2.3,0,3.5-0.2c20.8-1.1,31.4-19.3,31.6-54.2
					l29.8-1.5c2,32.9-4.4,58-18.9,74.3c-10.4,11.8-25.1,18.4-42.1,19.3c-1.8,0.2-3.6,0.2-5.3,0.2c-19.6,0-39.1-5.7-76.9-23
					c-3.2-1.5-6.3-3-9.5-4.5c-22.5-10.9-40.2-19.5-57.9-19.5c-0.9,0-1.8,0-2.7,0c-22.8,1.2-34.4,19.8-34.6,55.4L265.6,315z"/>
				<path class="st2" d="M541.5,213.5c1.5,31.3-4.7,55-18.4,70.4c-10,11.3-24,17.8-40.6,18.6c-1.8,0.2-3.5,0.2-5.3,0.2
					c-19.3,0-38.5-5.7-76-22.7c-3.2-1.5-6.3-3-9.4-4.5c-21.9-10.6-40.6-19.6-58.9-19.6c-0.9,0-2,0-2.9,0c-12.1,0.6-21.4,6-27.6,16
					c-5.7,9.2-8.8,22.5-9.1,39.6l-25.8,1.4c-0.8-27,4.8-49.5,16.2-65.6c10.9-15.1,26.6-23.7,45.2-24.6c1.7-0.2,3.3-0.2,4.8-0.2
					c20.7,0,38.7,7.3,74.8,23.9l0.9,0.5c26.9,12.7,48.2,22.7,69.3,22.7c1.2,0,2.4,0,3.5-0.2c11.8-0.6,20.5-6.3,26.3-17.1
					c4.7-8.9,7.3-21.1,7.4-37.3L541.5,213.5 M545.8,208.7l-34.1,1.8c0.3,34.1-8.9,53-29.3,54.1c-1.1,0-2.1,0.2-3.3,0.2
					c-20.4,0-40.8-9.7-68.3-22.7c-36.4-16.8-55-24.3-76.7-24.3c-1.7,0-3.3,0-5.1,0.2c-39.3,2.1-68.6,35.9-65.6,98.5v1.1l34.7-1.8
					c-0.5-37.9,11.9-54.2,32.3-55.3c0.9,0,1.7,0,2.6,0c19.6,0,40.2,11.3,66.5,23.9c36.6,16.6,56.9,23.1,77.9,23.1
					c1.8,0,3.6,0,5.4-0.2C518.4,305.2,550.6,278.3,545.8,208.7L545.8,208.7z"/>
			</g>
		</g>
		<g>
			<g>
				<polygon class="st7" points="388.2,317.6 427.3,330.4 433.1,567.3 394.3,569.2 				"/>
				<path class="st2" d="M390.5,320.6l34.6,11.5l5.6,232.9l-34.3,1.8L390.5,320.6 M385.8,314.4l6.2,257.2l43.3-2.3l-5.7-240.5
					L385.8,314.4L385.8,314.4z"/>
			</g>
		</g>
	</g>
</g>
<g id="Слой_2">
	<g>
		<g>
			<path class="st2" d="M716.3,344.8c-1.2-49.9-11.8-97.7-31.6-141.9c-19.1-42.7-45.6-80-78.9-110.8c-52.2-48.3-116.9-76.2-185-80.4
				c-0.1,0-0.3,0-0.4,0c-1.6-0.1-3.2-0.2-4.9-0.2c-1.5-0.1-3.1-0.1-4.6-0.2c-0.4,0-0.7,0-1.1,0c-0.9,0-1.7-0.1-2.6-0.1l-42.7-5.1
				c-12.2-1.5-24.6-2.1-37.1-2c-4.4,0-8.7,0.1-13.1,0.3h-0.1h-0.1c-1.5,0.1-3,0.2-4.5,0.3c-0.9,0.1-1.7,0.1-2.6,0.2
				c-1.6,0.1-3.2,0.3-4.8,0.4c-0.9,0.1-1.7,0.2-2.6,0.2c-1.6,0.2-3.2,0.3-4.7,0.5c-0.9,0.1-1.8,0.2-2.7,0.3
				c-1.6,0.2-3.1,0.4-4.7,0.6c-0.9,0.1-1.8,0.3-2.7,0.4c-1.5,0.2-3.1,0.5-4.6,0.7c-0.9,0.2-1.8,0.3-2.7,0.5
				c-1.5,0.3-3.1,0.5-4.6,0.8c-0.1,0-0.2,0-0.2,0c-3.5,0.7-7,1.5-10.5,2.3c-1.1,0.2-2.1,0.5-3.2,0.8c-1.3,0.3-2.7,0.7-4,1
				c-1,0.3-2.1,0.5-3.1,0.8c-1.4,0.4-2.8,0.8-4.2,1.2c-0.9,0.3-1.8,0.5-2.7,0.8c-1.5,0.5-3.1,0.9-4.6,1.4c-0.6,0.2-1.2,0.4-1.7,0.6
				C100.1,62.9-0.2,206,3.7,369.6c4.2,173.7,124.6,312,277.4,330.2l43.8,5.2c20.7,4.6,42,7,63.5,7c5.1,0,10.3-0.1,15.4-0.4
				c5.7-0.3,11.4-0.8,17.1-1.4C589.5,692.1,720.7,531.8,716.3,344.8z M388.5,43c4.4-0.2,8.8-0.3,13.2-0.4
				C521.8,76.8,611.6,194,615.2,337.5c0.1,2.5,0.1,5,0.1,7.4c0,0.9,0,1.8,0,2.7c0,1.6,0,3.2-0.1,4.7c0,1,0,2.1-0.1,3.1
				c0,1.4-0.1,2.9-0.1,4.3c0,1.1-0.1,2.2-0.1,3.2c-0.1,1.5-0.2,3.1-0.3,4.6c-0.1,2-0.3,4.1-0.4,6.1c-0.1,1-0.2,2-0.2,3
				c-0.1,1.5-0.3,3-0.4,4.4c-0.1,0.8-0.2,1.6-0.3,2.5c-0.2,1.6-0.4,3.2-0.5,4.8c-0.1,0.5-0.1,1.1-0.2,1.6
				c-6.3,50.1-23.3,96.9-48.2,137.4c-14.6,23.6-31.9,45.2-51.5,64.1c-1,0.9-2,1.9-2.9,2.8c-0.4,0.4-0.8,0.7-1.2,1.1
				c-16.1,14.9-33.6,28-52.3,39.1c0,0,0,0-0.1,0c-2,1.2-4.1,2.4-6.1,3.5c-0.1,0.1-0.2,0.1-0.3,0.2c-2.1,1.1-4.2,2.3-6.3,3.4
				c-0.3,0.2-0.7,0.3-1,0.5c-1.6,0.8-3.1,1.6-4.7,2.4c-1.1,0.5-2.2,1.1-3.3,1.6c-0.8,0.4-1.6,0.7-2.3,1.1c-1.3,0.6-2.7,1.2-4,1.9
				c-0.5,0.2-0.9,0.4-1.4,0.6c-1.4,0.6-2.9,1.3-4.4,1.9c-1,0.4-2.1,0.9-3.1,1.3c-1,0.4-1.9,0.8-2.9,1.2c-2.1,0.8-4.3,1.7-6.4,2.4
				c-0.2,0.1-0.3,0.1-0.5,0.2c-2,0.7-4.1,1.5-6.2,2.2c-0.4,0.1-0.9,0.3-1.3,0.4c-1.8,0.6-3.6,1.2-5.4,1.7c-0.5,0.2-1.1,0.3-1.6,0.5
				c-1.7,0.5-3.4,1-5.1,1.5c-0.6,0.2-1.2,0.3-1.8,0.5c-1.7,0.5-3.4,0.9-5.1,1.3c-0.6,0.2-1.2,0.3-1.8,0.5c-1.8,0.4-3.6,0.9-5.4,1.3
				c-0.5,0.1-1,0.2-1.5,0.3c-2.2,0.5-4.4,0.9-6.5,1.4c-1.1,0.2-2.2,0.4-3.4,0.6c-1.1,0.2-2.2,0.4-3.3,0.6c-1.3,0.2-2.7,0.4-4,0.6
				c-0.9,0.1-1.7,0.3-2.6,0.4c-1.4,0.2-2.9,0.4-4.3,0.6c-0.8,0.1-1.5,0.2-2.3,0.3c-1.5,0.2-3,0.4-4.5,0.5c-0.7,0.1-1.4,0.1-2.1,0.2
				c-1.6,0.1-3.2,0.3-4.8,0.4c-0.5,0-1.1,0.1-1.6,0.1c-1.7,0.1-3.3,0.2-5,0.3c-0.9,0-1.8,0.1-2.8,0.1
				c-44.6-10.8-86.4-33.3-121.8-66.1c-30.3-28-54.4-62-71.8-100.9c-18-40.3-27.7-83.8-28.8-129.2C100.6,201.1,227.8,51.4,388.5,43z"
				/>
		</g>
		<g>
			<path class="st2" d="M715.9,344.8c-1.2-49.9-11.8-97.7-31.6-141.9c-19.1-42.8-45.6-80-78.9-110.9c-55.4-51.4-125.1-79.7-198-80.9
				L364.2,6c-16.2-2-32.8-2.4-49.5-1.7h-0.1h-0.1c-1.5,0.1-3,0.2-4.5,0.3c-0.9,0.1-1.7,0.1-2.6,0.2c-1.6,0.1-3.2,0.3-4.8,0.4
				c-0.9,0.1-1.7,0.2-2.6,0.2c-1.6,0.2-3.2,0.3-4.7,0.5c-0.9,0.1-1.8,0.2-2.7,0.3c-1.6,0.2-3.1,0.4-4.7,0.6
				c-0.9,0.1-1.8,0.3-2.7,0.4c-1.5,0.2-3.1,0.5-4.6,0.7c-0.9,0.2-1.8,0.3-2.7,0.5c-1.5,0.3-3.1,0.5-4.6,0.8c-0.1,0-0.2,0-0.2,0
				c-3.5,0.7-7,1.5-10.5,2.3c-1.1,0.2-2.1,0.5-3.2,0.8c-1.3,0.3-2.7,0.7-4,1c-1,0.3-2.1,0.5-3.1,0.8c-1.4,0.4-2.8,0.8-4.2,1.2
				c-0.9,0.3-1.8,0.5-2.7,0.8c-1.5,0.5-3.1,0.9-4.6,1.4c-0.6,0.2-1.2,0.4-1.7,0.6C100.5,62.9,0.2,206,4.1,369.6
				c4.2,173.7,124.6,312,277.4,330.2l43.8,5.2c20.7,4.6,42,7,63.5,7c5.1,0,10.3-0.1,15.4-0.4C580.7,702.3,720.5,537.8,715.9,344.8z
				 M388.1,43c4.6-0.2,9.2-0.4,13.8-0.4c120.2,34.1,210,151.4,213.6,294.9c0.1,2.5,0.1,5,0.1,7.4c0,0.9,0,1.8,0,2.7
				c0,1.6,0,3.2-0.1,4.7c0,1,0,2.1-0.1,3.1c0,1.4-0.1,2.9-0.1,4.3c0,1.1-0.1,2.2-0.1,3.2c-0.1,1.5-0.2,3.1-0.3,4.6
				c-0.1,2-0.3,4.1-0.4,6.1c-0.1,1-0.2,2-0.2,3c-0.1,1.5-0.3,3-0.4,4.4c-0.1,0.8-0.2,1.6-0.3,2.5c-0.2,1.6-0.4,3.2-0.5,4.8
				c-0.1,0.5-0.1,1.1-0.2,1.6c-6.3,50.1-23.3,96.9-48.2,137.4c-14.6,23.6-31.9,45.2-51.5,64.1c-1,0.9-2,1.9-2.9,2.8
				c-0.4,0.4-0.8,0.7-1.2,1.1c-16.1,14.9-33.6,28-52.3,39.1c0,0,0,0-0.1,0c-2,1.2-4.1,2.4-6.1,3.5c-0.1,0.1-0.2,0.1-0.3,0.2
				c-2.1,1.1-4.2,2.3-6.3,3.4c-0.3,0.2-0.7,0.3-1,0.5c-1.6,0.8-3.1,1.6-4.7,2.4c-1.1,0.5-2.2,1.1-3.3,1.6c-0.8,0.4-1.6,0.7-2.3,1.1
				c-1.3,0.6-2.7,1.2-4,1.9c-0.5,0.2-0.9,0.4-1.4,0.6c-1.4,0.6-2.9,1.3-4.4,1.9c-1,0.4-2.1,0.9-3.1,1.3c-1,0.4-1.9,0.8-2.9,1.2
				c-2.1,0.8-4.3,1.7-6.4,2.4c-0.2,0.1-0.3,0.1-0.5,0.2c-2,0.7-4.1,1.5-6.2,2.2c-0.4,0.1-0.9,0.3-1.3,0.4c-1.8,0.6-3.6,1.2-5.4,1.7
				c-0.5,0.2-1.1,0.3-1.6,0.5c-1.7,0.5-3.4,1-5.1,1.5c-0.6,0.2-1.2,0.3-1.8,0.5c-1.7,0.5-3.4,0.9-5.1,1.3c-0.6,0.2-1.2,0.3-1.8,0.5
				c-1.8,0.4-3.6,0.9-5.4,1.3c-0.5,0.1-1,0.2-1.5,0.3c-2.2,0.5-4.4,0.9-6.5,1.4c-1.1,0.2-2.2,0.4-3.4,0.6c-1.1,0.2-2.2,0.4-3.3,0.6
				c-1.3,0.2-2.7,0.4-4,0.6c-0.9,0.1-1.7,0.3-2.6,0.4c-1.4,0.2-2.9,0.4-4.3,0.6c-0.8,0.1-1.5,0.2-2.3,0.3c-1.5,0.2-3,0.4-4.5,0.5
				c-0.7,0.1-1.4,0.1-2.1,0.2c-1.6,0.1-3.2,0.3-4.8,0.4c-0.5,0-1.1,0.1-1.6,0.1c-1.7,0.1-3.3,0.2-5,0.3c-1,0-2,0.1-3,0.1
				c-44.8-10.8-86.8-33.3-122.3-66.2c-30.3-28-54.4-62-71.8-100.8c-18-40.3-27.7-83.7-28.8-129.2C100.3,201.2,227.5,51.4,388.1,43z"
				/>
		</g>
		<g>
			<g class="st3">
				<path class="st4" d="M361.6,34.4l73,8.6c140.3,16.6,250.9,143.6,254.7,303.1c4.2,176.4-123.6,326.9-284.9,335.3l-73-8.6
					c161.3-8.5,289.1-158.9,284.9-335.3C612.3,178.1,501.9,51,361.6,34.4z"/>
				<g>
					<path class="st2" d="M689.2,346.2C685.4,186.7,574.9,59.6,434.5,43l-73-8.6C501.8,51,612.4,178,616.2,337.5
						c1.7,69.8-17.4,135.5-50.9,190c-16,26-35.3,49.4-57.4,69.6c-23.6,21.6-50.3,39.3-79.1,52.1c-30.4,13.6-63.1,21.8-97.6,23.6
						c-15.4,0.8-30.7,0.3-45.6-1.5l73,8.6c15,1.8,30.1,2.3,45.6,1.5c34.3-1.8,67.2-10,97.6-23.6c28.8-12.8,55.6-30.7,79.1-52.1
						c22.1-20.1,41.4-43.5,57.4-69.6C671.8,481.7,690.9,416,689.2,346.2z"/>
				</g>
				<path class="st4" d="M355.2,708.4l-73-8.6C129.4,681.6,9,543.3,4.8,369.6C0.3,177.5,139.4,13.6,315.2,4.4l73,8.6
					c-175.7,9.2-315,173.1-310.4,365.2C82,551.9,202.4,690.3,355.2,708.4z"/>
				<g>
					<path class="st8" d="M388.2,13c175.7-9.2,322.3,139.6,327,331.8c4.5,192.1-134.6,356-310.2,365.2
						C229.3,719.3,82.5,570.5,77.9,378.2C73.2,186.1,212.5,22.2,388.2,13z M404.2,681.5c161.3-8.5,289.1-158.9,284.9-335.3
						c-4.2-176.4-139-313.1-300.3-304.7s-289.3,158.9-285,335.3C108.1,553.3,242.9,690,404.2,681.5"/>
				</g>
				<g>
					<path class="st2" d="M364.9,6c-16.2-2-32.8-2.4-49.5-1.7c-37.5,2-73.3,10.9-106.2,25.7c-31.4,14-60.4,33.4-86.2,56.8
						c-24,21.9-45,47.4-62.5,75.8C23.8,222,3.2,293.6,5,369.6c4.2,173.7,124.4,312,277.4,330.2l73,8.6
						C202.5,690.3,82.2,551.9,77.9,378.2c-1.8-76,18.9-147.6,55.4-206.9c17.5-28.4,38.5-53.9,62.5-75.8
						c25.7-23.4,54.7-42.7,86.2-56.8C315.1,23.9,350.9,15,388.2,13c16.8-0.9,33.4-0.3,49.5,1.7L364.9,6z"/>
				</g>
			</g>
		</g>
	</g>
</g>
</svg>
