<?xml version="1.0" encoding="UTF-8"?>
<!-- Generator: Adobe Illustrator 21.0.0, SVG Export Plug-In . SVG Version: 6.00 Build 0) -->
<svg xmlns="http://www.w3.org/2000/svg" xmlns:xlink="http://www.w3.org/1999/xlink" id="Слой_1" x="0px" y="0px" viewBox="0 0 720 716" style="enable-background:new 0 0 720 716;" xml:space="preserve"> <style type="text/css"> .st0{fill:#3A3FFF;} .st1{enable-background:new ;} .st2{fill:none;} .st3{fill:#FFFFFF;stroke:#3A3FFF;stroke-width:3;stroke-miterlimit:10;} </style> <g> <path class="st0" d="M716.3,345.5c-1.2-49.9-11.8-97.7-31.6-141.9c-19.1-42.7-45.6-80-78.9-110.8c-52.2-48.3-116.9-76.2-185-80.4 c-0.1,0-0.3,0-0.4,0c-1.6-0.1-3.2-0.2-4.9-0.2c-1.5-0.1-3.1-0.1-4.6-0.2c-0.4,0-0.7,0-1.1,0c-0.9,0-1.7-0.1-2.6-0.1l-42.7-5.1 c-12.2-1.5-24.6-2.1-37.1-2c-4.4,0-8.7,0.1-13.1,0.3h-0.1h-0.1c-1.5,0.1-3,0.2-4.5,0.3c-0.9,0.1-1.7,0.1-2.6,0.2 c-1.6,0.1-3.2,0.3-4.8,0.4c-0.9,0.1-1.7,0.2-2.6,0.2c-1.6,0.2-3.2,0.3-4.7,0.5c-0.9,0.1-1.8,0.2-2.7,0.3c-1.6,0.2-3.1,0.4-4.7,0.6 c-0.9,0.1-1.8,0.3-2.7,0.4c-1.5,0.2-3.1,0.5-4.6,0.7c-0.9,0.2-1.8,0.3-2.7,0.5c-1.5,0.3-3.1,0.5-4.6,0.8c-0.1,0-0.2,0-0.2,0 c-3.5,0.7-7,1.5-10.5,2.3c-1.1,0.2-2.1,0.5-3.2,0.8c-1.3,0.3-2.7,0.7-4,1c-1,0.3-2.1,0.5-3.1,0.8c-1.4,0.4-2.8,0.8-4.2,1.2 c-0.9,0.3-1.8,0.5-2.7,0.8c-1.5,0.5-3.1,0.9-4.6,1.4c-0.6,0.2-1.2,0.4-1.7,0.6C100.1,63.6-0.2,206.7,3.7,370.3 c4.2,173.7,124.6,312,277.4,330.2l43.8,5.2c20.7,4.6,42,7,63.5,7c5.1,0,10.3-0.1,15.4-0.4c5.7-0.3,11.4-0.8,17.1-1.4 C589.5,692.8,720.7,532.5,716.3,345.5z M388.5,43.7c4.4-0.2,8.8-0.3,13.2-0.4c120.1,34.2,209.9,151.4,213.5,294.9 c0.1,2.5,0.1,5,0.1,7.4c0,0.9,0,1.8,0,2.7c0,1.6,0,3.2-0.1,4.7c0,1,0,2.1-0.1,3.1c0,1.4-0.1,2.9-0.1,4.3c0,1.1-0.1,2.2-0.1,3.2 c-0.1,1.5-0.2,3.1-0.3,4.6c-0.1,2-0.3,4.1-0.4,6.1c-0.1,1-0.2,2-0.2,3c-0.1,1.5-0.3,3-0.4,4.4c-0.1,0.8-0.2,1.6-0.3,2.5 c-0.2,1.6-0.4,3.2-0.5,4.8c-0.1,0.5-0.1,1.1-0.2,1.6c-6.3,50.1-23.3,96.9-48.2,137.4c-14.6,23.6-31.9,45.2-51.5,64.1 c-1,0.9-2,1.9-2.9,2.8c-0.4,0.4-0.8,0.7-1.2,1.1c-16.1,14.9-33.6,28-52.3,39.1c0,0,0,0-0.1,0c-2,1.2-4.1,2.4-6.1,3.5 c-0.1,0.1-0.2,0.1-0.3,0.2c-2.1,1.1-4.2,2.3-6.3,3.4c-0.3,0.2-0.7,0.3-1,0.5c-1.6,0.8-3.1,1.6-4.7,2.4c-1.1,0.5-2.2,1.1-3.3,1.6 c-0.8,0.4-1.6,0.7-2.3,1.1c-1.3,0.6-2.7,1.2-4,1.9c-0.5,0.2-0.9,0.4-1.4,0.6c-1.4,0.6-2.9,1.3-4.4,1.9c-1,0.4-2.1,0.9-3.1,1.3 c-1,0.4-1.9,0.8-2.9,1.2c-2.1,0.8-4.3,1.7-6.4,2.4c-0.2,0.1-0.3,0.1-0.5,0.2c-2,0.7-4.1,1.5-6.2,2.2c-0.4,0.1-0.9,0.3-1.3,0.4 c-1.8,0.6-3.6,1.2-5.4,1.7c-0.5,0.2-1.1,0.3-1.6,0.5c-1.7,0.5-3.4,1-5.1,1.5c-0.6,0.2-1.2,0.3-1.8,0.5c-1.7,0.5-3.4,0.9-5.1,1.3 c-0.6,0.2-1.2,0.3-1.8,0.5c-1.8,0.4-3.6,0.9-5.4,1.3c-0.5,0.1-1,0.2-1.5,0.3c-2.2,0.5-4.4,0.9-6.5,1.4c-1.1,0.2-2.2,0.4-3.4,0.6 c-1.1,0.2-2.2,0.4-3.3,0.6c-1.3,0.2-2.7,0.4-4,0.6c-0.9,0.1-1.7,0.3-2.6,0.4c-1.4,0.2-2.9,0.4-4.3,0.6c-0.8,0.1-1.5,0.2-2.3,0.3 c-1.5,0.2-3,0.4-4.5,0.5c-0.7,0.1-1.4,0.1-2.1,0.2c-1.6,0.1-3.2,0.3-4.8,0.4c-0.5,0-1.1,0.1-1.6,0.1c-1.7,0.1-3.3,0.2-5,0.3 c-0.9,0-1.8,0.1-2.8,0.1c-44.6-10.8-86.4-33.3-121.8-66.1c-30.3-28-54.4-62-71.8-100.9c-18-40.3-27.7-83.8-28.8-129.2 C100.6,201.8,227.8,52.1,388.5,43.7z"/> </g> <g> <path class="st0" d="M715.9,345.5c-1.2-49.9-11.8-97.7-31.6-141.9c-19.1-42.8-45.6-80-78.9-110.9C550,41.3,480.3,13,407.4,11.8 l-43.2-5.1c-16.2-2-32.8-2.4-49.5-1.7h-0.1h-0.1c-1.5,0.1-3,0.2-4.5,0.3c-0.9,0.1-1.7,0.1-2.6,0.2c-1.6,0.1-3.2,0.3-4.8,0.4 c-0.9,0.1-1.7,0.2-2.6,0.2c-1.6,0.2-3.2,0.3-4.7,0.5c-0.9,0.1-1.8,0.2-2.7,0.3c-1.6,0.2-3.1,0.4-4.7,0.6c-0.9,0.1-1.8,0.3-2.7,0.4 c-1.5,0.2-3.1,0.5-4.6,0.7c-0.9,0.2-1.8,0.3-2.7,0.5c-1.5,0.3-3.1,0.5-4.6,0.8c-0.1,0-0.2,0-0.2,0c-3.5,0.7-7,1.5-10.5,2.3 c-1.1,0.2-2.1,0.5-3.2,0.8c-1.3,0.3-2.7,0.7-4,1c-1,0.3-2.1,0.5-3.1,0.8c-1.4,0.4-2.8,0.8-4.2,1.2c-0.9,0.3-1.8,0.5-2.7,0.8 c-1.5,0.5-3.1,0.9-4.6,1.4c-0.6,0.2-1.2,0.4-1.7,0.6C100.5,63.6,0.2,206.7,4.1,370.3c4.2,173.7,124.6,312,277.4,330.2l43.8,5.2 c20.7,4.6,42,7,63.5,7c5.1,0,10.3-0.1,15.4-0.4C580.7,703,720.5,538.5,715.9,345.5z M388.1,43.7c4.6-0.2,9.2-0.4,13.8-0.4 c120.2,34.1,210,151.4,213.6,294.9c0.1,2.5,0.1,5,0.1,7.4c0,0.9,0,1.8,0,2.7c0,1.6,0,3.2-0.1,4.7c0,1,0,2.1-0.1,3.1 c0,1.4-0.1,2.9-0.1,4.3c0,1.1-0.1,2.2-0.1,3.2c-0.1,1.5-0.2,3.1-0.3,4.6c-0.1,2-0.3,4.1-0.4,6.1c-0.1,1-0.2,2-0.2,3 c-0.1,1.5-0.3,3-0.4,4.4c-0.1,0.8-0.2,1.6-0.3,2.5c-0.2,1.6-0.4,3.2-0.5,4.8c-0.1,0.5-0.1,1.1-0.2,1.6 c-6.3,50.1-23.3,96.9-48.2,137.4c-14.6,23.6-31.9,45.2-51.5,64.1c-1,0.9-2,1.9-2.9,2.8c-0.4,0.4-0.8,0.7-1.2,1.1 c-16.1,14.9-33.6,28-52.3,39.1c0,0,0,0-0.1,0c-2,1.2-4.1,2.4-6.1,3.5c-0.1,0.1-0.2,0.1-0.3,0.2c-2.1,1.1-4.2,2.3-6.3,3.4 c-0.3,0.2-0.7,0.3-1,0.5c-1.6,0.8-3.1,1.6-4.7,2.4c-1.1,0.5-2.2,1.1-3.3,1.6c-0.8,0.4-1.6,0.7-2.3,1.1c-1.3,0.6-2.7,1.2-4,1.9 c-0.5,0.2-0.9,0.4-1.4,0.6c-1.4,0.6-2.9,1.3-4.4,1.9c-1,0.4-2.1,0.9-3.1,1.3c-1,0.4-1.9,0.8-2.9,1.2c-2.1,0.8-4.3,1.7-6.4,2.4 c-0.2,0.1-0.3,0.1-0.5,0.2c-2,0.7-4.1,1.5-6.2,2.2c-0.4,0.1-0.9,0.3-1.3,0.4c-1.8,0.6-3.6,1.2-5.4,1.7c-0.5,0.2-1.1,0.3-1.6,0.5 c-1.7,0.5-3.4,1-5.1,1.5c-0.6,0.2-1.2,0.3-1.8,0.5c-1.7,0.5-3.4,0.9-5.1,1.3c-0.6,0.2-1.2,0.3-1.8,0.5c-1.8,0.4-3.6,0.9-5.4,1.3 c-0.5,0.1-1,0.2-1.5,0.3c-2.2,0.5-4.4,0.9-6.5,1.4c-1.1,0.2-2.2,0.4-3.4,0.6c-1.1,0.2-2.2,0.4-3.3,0.6c-1.3,0.2-2.7,0.4-4,0.6 c-0.9,0.1-1.7,0.3-2.6,0.4c-1.4,0.2-2.9,0.4-4.3,0.6c-0.8,0.1-1.5,0.2-2.3,0.3c-1.5,0.2-3,0.4-4.5,0.5c-0.7,0.1-1.4,0.1-2.1,0.2 c-1.6,0.1-3.2,0.3-4.8,0.4c-0.5,0-1.1,0.1-1.6,0.1c-1.7,0.1-3.3,0.2-5,0.3c-1,0-2,0.1-3,0.1c-44.8-10.8-86.8-33.3-122.3-66.2 c-30.3-28-54.4-62-71.8-100.8c-18-40.3-27.7-83.7-28.8-129.2C100.3,201.9,227.5,52.1,388.1,43.7z"/> </g> <g> <g class="st1"> <path class="st2" d="M361.6,35.1l73,8.6c140.3,16.6,250.9,143.6,254.7,303.1c4.2,176.4-123.6,326.9-284.9,335.3l-73-8.6 c161.3-8.5,289.1-158.9,284.9-335.3C612.3,178.8,501.9,51.7,361.6,35.1z"/> <g> <path class="st0" d="M689.2,346.9C685.4,187.4,574.9,60.3,434.5,43.7l-73-8.6c140.3,16.6,250.9,143.6,254.7,303.1 c1.7,69.8-17.4,135.5-50.9,190c-16,26-35.3,49.4-57.4,69.6c-23.6,21.6-50.3,39.3-79.1,52.1c-30.4,13.6-63.1,21.8-97.6,23.6 c-15.4,0.8-30.7,0.3-45.6-1.5l73,8.6c15,1.8,30.1,2.3,45.6,1.5c34.3-1.8,67.2-10,97.6-23.6c28.8-12.8,55.6-30.7,79.1-52.1 c22.1-20.1,41.4-43.5,57.4-69.6C671.8,482.4,690.9,416.7,689.2,346.9z"/> </g> <path class="st2" d="M355.2,709.1l-73-8.6C129.4,682.3,9,544,4.8,370.3C0.3,178.2,139.4,14.3,315.2,5.1l73,8.6 c-175.7,9.2-315,173.1-310.4,365.2C82,552.6,202.4,691,355.2,709.1z"/> <g> <path class="st3" d="M388.2,13.7c175.7-9.2,322.3,139.6,327,331.8c4.5,192.1-134.6,356-310.2,365.2 C229.3,720,82.5,571.2,77.9,378.9C73.2,186.8,212.5,22.9,388.2,13.7z M404.2,682.2c161.3-8.5,289.1-158.9,284.9-335.3 c-4.2-176.4-139-313.1-300.3-304.7s-289.3,158.9-285,335.3C108.1,554,242.9,690.7,404.2,682.2"/> </g> <g> <path class="st0" d="M364.9,6.7c-16.2-2-32.8-2.4-49.5-1.7c-37.5,2-73.3,10.9-106.2,25.7c-31.4,14-60.4,33.4-86.2,56.8 c-24,21.9-45,47.4-62.5,75.8c-36.7,59.4-57.3,131-55.5,207c4.2,173.7,124.4,312,277.4,330.2l73,8.6 C202.5,691,82.2,552.6,77.9,378.9c-1.8-76,18.9-147.6,55.4-206.9c17.5-28.4,38.5-53.9,62.5-75.8c25.7-23.4,54.7-42.7,86.2-56.8 c33.1-14.8,68.9-23.7,106.2-25.7c16.8-0.9,33.4-0.3,49.5,1.7L364.9,6.7z"/> </g> </g> </g> </svg>