<?xml version="1.0" encoding="UTF-8"?> <!-- Generator: Adobe Illustrator 21.0.0, SVG Export Plug-In . SVG Version: 6.00 Build 0) --> <svg xmlns="http://www.w3.org/2000/svg" xmlns:xlink="http://www.w3.org/1999/xlink" id="Слой_1" x="0px" y="0px" viewBox="0 0 672 289" style="enable-background:new 0 0 672 289;" xml:space="preserve"> <style type="text/css"> .st0{display:none;} .st1{display:inline;} .st2{fill:#FFFFFF;} .st3{display:inline;fill:#FFFFFF;} .st4{display:none;fill:#FFFFFF;} </style> <g class="st0"> <g class="st1"> <path class="st2" d="M258.9,176.6h38.5l18-37.1c0,0-7.5-8.4-13.1-18.3c-4-6.9-7-13.6-7-13.6L258.9,176.6z"></path> <path class="st2" d="M351.6,0.3l-16.9,32.4C317.5,9.5,311,0.3,311,0.3s1.4,37.4,20.4,78.6c18.5,39.8,53.4,83.3,112.8,97.7 L351.6,0.3z"></path> </g> <path class="st3" d="M297.4,38c0,0,16.6,90,105,132C342.7,154.9,294.9,118,297.4,38z"></path> </g> <g class="st0"> <path class="st3" d="M34.1,261.9L10.6,288H0.2v-1.2l4.6-2l22.3-24.2l-20-20.4l-5.7-2V237h17.5v1.2l-5.5,2.6L34.1,261.9z M28,288 v-1.2l6.1-3.1v-42.3l-6.1-3.1v-1.2h19.3v1.2l-6.1,3.1v42.3l6.1,3.1v1.2H28z M41.2,261.9l20.6-21l-5.5-2.6v-1.2h17v1.2l-5.7,2 L48,260.2l23,24.7l4.6,2v1.2H64.5L41.2,261.9z"></path> <path class="st3" d="M81.9,288v-1.2l6.1-3.1v-42.3l-6.1-3.1v-1.2h19.4v1.2l-6.1,3.1v42.3l6.1,3.1v1.2H81.9z M95.2,261.9l21.4-21 l-5.5-2.6v-1.2h16.2v1.2l-4.8,1.8l-20.4,20l24.4,24.8l4.7,2v1.2h-11L95.2,261.9z"></path> <path class="st3" d="M168.7,282.6L153.3,269l15.4-13.6h0.9L161,269l8.6,13.6H168.7z M182.7,282.6L167.3,269l15.4-13.6h0.9L175,269 l8.6,13.6H182.7z"></path> <path class="st3" d="M187.7,288v-1.2l5-2.6l19.7-47.5h3.5l19.5,47.3l5.2,2.8v1.2h-19.2v-1.2l6.8-2.6l-5.8-14.3h-18.8l-5.8,14.3 l6.5,2.6v1.2C204.3,288,187.7,288,187.7,288z M205.3,265.6h15.3l-7.7-19L205.3,265.6z"></path> <path class="st3" d="M248.1,288v-1.2l5.6-2.6v-35.6l-5.6-2.6v-1.2h17.6v1.2l-5.5,2.6v35.7l5.5,2.6v1.2L248.1,288L248.1,288z M281.9,288l-21.7-22.1l18-17.8l-4.8-2.2v-1.2h15.4v1.2l-4.6,1.7L267,264.1l20.4,20.5l5.5,2.1v1.2L281.9,288L281.9,288z"></path> <path class="st3" d="M300.5,288v-1.2l5.5-2.6v-35.6l-5.5-2.6v-1.2h15.7c5.4,0,9.4,0.9,12.3,2.5c2.8,1.6,4.2,4.1,4.2,7.5 c0,2.5-0.8,4.6-2.2,6.4c-1.5,1.8-3.6,3.1-6.1,3.7c3.8,0.6,6.9,1.8,9.1,3.6c2.2,1.8,3.4,4.2,3.4,7c0,2.4-0.8,4.5-2.3,6.3 c-1.5,1.9-3.6,3.4-6.4,4.4c-2.8,1.1-6,1.6-9.5,1.6L300.5,288L300.5,288z M315.3,248.5h-2.7v15.1h2.9c3.1,0,5.7-0.6,7.6-1.8 c2-1.2,3-3.2,3-6c0-2.4-1-4.2-2.8-5.5C321.4,249.2,318.8,248.5,315.3,248.5z M317.9,267.5h-5.3v16.6h5.8c3.4,0,6.1-0.7,8.4-2 c2.1-1.3,3.2-3.5,3.2-6.3c0-3.2-1.1-5.3-3.3-6.5C324.5,268.1,321.5,267.5,317.9,267.5z"></path> <path class="st3" d="M341.8,288v-1.2l3.9-2l17.2-40.4h3.3l17.1,40.3l4.5,2.1v1.2H371v-1.2l5.4-2.2l-4.9-11.7h-16l-4.9,11.9l5.8,2 v1.2L341.8,288L341.8,288z M357,269h12.9l-6.5-15.7L357,269z"></path> <path class="st3" d="M401.4,288v-1.2l6.9-2.6v-35.6h-11.9l-3.7,9h-1.2v-12.9H432v12.9h-1.2l-3.8-9h-11.9v35.6l6.9,2.6v1.2H401.4z"></path> <path class="st3" d="M462,288.7c-4.2,0-8-1-11.3-2.9c-3.4-1.9-6-4.6-7.9-8s-2.9-7.2-2.9-11.5s1-8.2,2.9-11.6s4.5-6,7.9-8 s7.1-2.9,11.3-2.9c4.3,0,8.1,1,11.4,2.9s6,4.6,7.9,8s2.9,7.3,2.9,11.6c0,4.3-1,8.2-2.9,11.5c-1.9,3.4-4.5,6-7.9,8 C470.1,287.8,466.3,288.7,462,288.7z M463.4,284.9c4.4,0,7.9-1.5,10.5-4.5c2.5-3.1,3.7-7,3.7-12.1c0-4-0.7-7.7-2.1-10.8 c-1.3-3.1-3.4-5.5-5.9-7.2s-5.4-2.6-8.6-2.6c-4.4,0-8,1.5-10.5,4.5c-2.6,3-3.8,7-3.8,12c0,4.1,0.7,7.8,2.1,10.9 c1.4,3.1,3.4,5.6,5.9,7.3C457.2,284,460.1,284.9,463.4,284.9z"></path> <path class="st3" d="M494.7,288v-1.2l5.6-2.6v-35.6l-5.6-2.6v-1.2h17.2c11.8,0,17.7,4.1,17.7,12.3c0,2.6-0.8,4.9-2.4,6.8 s-3.8,3.4-6.6,4.3c-2.8,1-6,1.5-9.7,1.5h-4v14.5l6.3,2.6v1.2L494.7,288L494.7,288z M506.8,248.5v17.2h4.2c3.6,0,6.3-0.8,8.5-2.3 c2.2-1.5,3.2-3.6,3.2-6.4c0-3.1-1.1-5.2-3.2-6.5c-2.1-1.3-5.1-2-8.8-2L506.8,248.5L506.8,248.5z"></path> <path class="st3" d="M538.7,288v-1.2l5.5-2.6v-35.6l-5.5-2.6v-1.2h17.8v1.2l-5.8,2.6v29l23.9-26.5v-2.6l-5.8-2.6v-1.3h17.7v1.2 l-5.4,2.6v35.7l5.4,2.6v1.2h-17.7v-1.2l5.8-2.6v-28.4L550.8,282v2.1l5.8,2.6v1.2L538.7,288L538.7,288z"></path> <path class="st3" d="M603.3,288h-10v-1.2l4.7-2.3l12.3-16.1c-3.6-0.9-6.4-2.4-8.4-4.4c-1.9-2.1-2.9-4.3-2.9-6.7 c0-4,1.5-7.1,4.7-9.2c3.1-2.1,8-3.2,14.6-3.2h16.6v1.2l-5.6,2.6v35.7l5.6,2.6v1.2h-17.2V287l5.1-2.6v-14.8h-6.5L603.3,288z M618.2,265.8h4.8v-17.3h-4.4c-4.2,0-7.4,0.8-9.4,2.2c-2,1.5-3.1,3.6-3.1,6.1s1.1,4.7,3.1,6.3C611.2,264.9,614.2,265.8,618.2,265.8 z"></path> <path class="st3" d="M641.5,282.6l8.6-13.6l-8.6-13.6h0.9l15.4,13.6l-15.4,13.6H641.5z M655.4,282.6L664,269l-8.6-13.6h0.9 l15.4,13.6l-15.4,13.6H655.4z"></path> </g> <path id="path42" class="st4" d="M300.4,131.5c-2.4,8.8-7.6,23.1-10.9,29.2c-5.5,1.3-22,5.3-35.9,5.3c-48.4,0-69.9-32-69.9-61 c0-38.6,31.2-63.9,74.7-63.9c16.1,0,29.6,4.5,34.9,5.3c1.4,10.3,2.9,18.2,4,28.7l-5.6,1.3c-5.2-20.4-17.8-28.4-38.2-28.4 c-32,0-49,25.9-49,53.1c0,34.6,21.1,57.7,50.6,57.7c19.4,0,30.2-10.3,39.9-29.3L300.4,131.5L300.4,131.5z"></path> <g id="g44" transform="translate(214.42178,708.091)" class="st0"> <path id="path46" class="st3" d="M97.1-545v-5.3c15.4-1.1,16.9-2.3,16.9-18.1v-72.4c0-15.9-1.6-17.1-16.9-18.1v-5.5h51.1v5.5 c-15.2,1-16.8,2.2-16.8,18.1v72.4c0,15.8,1.6,16.9,16.8,18.1v5.3H97.1z"></path> </g> <g id="g48" transform="translate(285.93648,772.2033)" class="st0"> <path id="path50" class="st3" d="M154-724.3c-21.1,0-41.1,17.2-41.1,51.9c0,33.8,20,59.2,46.8,59.2c21.1,0,40.4-16.8,40.4-52.3 C200.1-703.9,178.9-724.3,154-724.3L154-724.3z M158.2-731.2c33,0,62.8,24.1,62.8,60.8c0,39.6-29.7,64.1-65.4,64.1 c-35.2,0-63.3-26-63.3-61.3C92.2-700.9,117.2-731.2,158.2-731.2C158-731.2,158.2-731.2,158.2-731.2z"></path> </g> <g id="g52" transform="translate(274.15931,668.25307)" class="st0"> <path id="path54" class="st3" d="M144.6-433.7l-5.5-16.5l-5.5,16.5H144.6z M153.6-420.5H149l-3.6-10.1h-13.2l-3.2,10.1h-3.7 l11.5-34.3h5C142.1-454.8,153.6-420.5,153.6-420.5z"></path> </g> <g id="g56" transform="translate(296.34191,660.86827)" class="st0"> <path id="path58" class="st3" d="M162.3-413H158l-18.4-29.9v2.3c0,0.9,0.1,1.6,0.1,2.2v25.6h-3.6v-34.3h5.6l17.2,28v-2.4 c0-1,0-1.7,0-2.4v-23.1h3.4v34.2H162.3z"></path> </g> <g id="g60" transform="translate(303.76091,662.90047)" class="st0"> <path id="path62" class="st3" d="M168.1-418.8h7.2c3.9,0,6.8-1.3,8.6-3.9c2-2.6,3-5.9,3-10.1c0-3.4-1-6.5-2.9-9.2s-4.9-4-8.8-4 h-7.2V-418.8z M163.7-415v-34.3h11.9c5,0,8.9,1.6,11.8,4.9c2.7,3.3,4.2,7.3,4.2,12.1c0,4.9-1.3,8.9-4,12.2c-2.7,3.3-6.2,5-10.3,5 C177-415,163.7-415,163.7-415z"></path> </g> <g id="g64" transform="translate(208.13491,662.90047)" class="st0"> <path id="path66" class="st3" d="M92.1-418.8h7.2c3.9,0,6.8-1.3,8.6-3.9c2-2.6,3-5.9,3-10.1c0-3.4-1-6.5-2.9-9.2s-4.9-4-8.8-4h-7.2 V-418.8z M87.6-415v-34.3h11.9c5,0,8.9,1.6,11.6,4.9c2.7,3.3,4.2,7.3,4.2,12.1c0,4.9-1.3,8.9-4,12.2c-2.7,3.3-6.2,5-10.3,5 C101-415,87.6-415,87.6-415z"></path> </g> <g id="g68" transform="translate(237.64861,662.96987)" class="st0"> <path id="path70" class="st3" d="M115.6-418.9v3.7h-23v-34.3H115v3.7H97v10.9h14.4v3.4H97v12.4h18.5V-418.9z"></path> </g> <g id="g72" transform="translate(260.20721,660.86827)" class="st0"> <path id="path74" class="st3" d="M133.4-413h-4.3v-30l-11.5,30h-3l-11.6-30v30h-3.7v-34.3h6.6l10.8,27.4l10.5-27.4h6.5L133.4-413z"></path> </g> <g id="g76" transform="translate(190.66231,660.86827)" class="st0"> <path id="path78" class="st3" d="M78.3-413h-4.3l-18.4-29.9v2.3c0,0.9,0.1,1.6,0.1,2.2v25.6h-3.6v-34.3h5.6l17.2,28v-2.4 c0-1,0-1.7,0-2.4v-23.1h3.4v34.2H78.3z"></path> </g> <g id="g80" transform="translate(168.00311,677.90147)" class="st0"> <path id="path82" class="st3" d="M60.2-460.6c-2.4-2.4-5.5-3.9-8.9-4.6v3.7c2.3,0.6,4.3,1.6,5.9,3c2.7,2.4,4,5.9,4,10.3 c0,4.3-1.3,7.8-3.9,10.5c-2.6,2.7-6.2,4-10.8,4c-4.5,0-8-1.3-10.8-3.9c-2.7-2.6-4-6-4-10.2c0-4.3,1.3-7.8,4-10.5 c1.7-1.7,4-2.9,6.6-3.4v-3.6c-3.6,0.7-6.5,2.2-8.9,4.6c-3.4,3.3-5,7.6-5,12.8c0,5,1.6,9.2,4.9,12.5c3.3,3.4,7.8,5.2,13.5,5.2 c5.9,0,10.5-1.9,13.8-5.5c3.3-3.6,4.9-7.8,4.9-12.6C65.2-453.2,63.5-457.3,60.2-460.6"></path> </g> <path id="path84" class="st4" d="M217.1,228.3h-4.9v-22h4.9V228.3z"></path> <g> <path class="st2" d="M334.1,183.4l0.1-59.8c-0.3-1.9-21.4-24.2-24.5-28.3l-16.6-18.6c-3-3-5.9-5.9-8.9-8.9 c-2.5-2.5-7.1-6.2-9.1-8.8c-4.8-6.4,2.2-8.6,3.1-11.6l-6.4-5.8c-4.9,1.6-13.4,12.6-6.1,22.8c1.5,2.1,4.4,4,5.8,6 c-8.7,0-11.2-0.6-17.3,5.5c-4.9,4.9-3.6,12.2-3.6,19.2c2.2,0,7.6,0.3,9.4-0.2c1.2-4.2-2.1-12.8,5.3-14c3.5-0.6,14.9-0.2,19.2-0.1 c1,0.3,17.2,18.2,19.8,21.3c1.9,2.2,19.2,20.5,19.5,21.5v54.5c-0.1,0.3-10.9,12-14,12.8c-4.1,1.1-5.9-1.1-8.6-3.8 c-1.7-1.7-5.6-5.1-6.7-6.9c1.9-3,9.1-8.3,12.2-11.3c1.3-1.3,2.6-2.6,3.9-3.9c0.3-0.1,5.8,0.6,8.3-4.5c1.6-3.2,1.1-7.2-1.6-9.6 c-2.7-2.5-6.2-3-9.4-1.3c-5.5,2.8-4.4,7.8-4.7,8.5c-3.3,3.2-7.9,8.5-11.2,11.2c-1.9,1.6-10.2,9.5-11.5,11.3 c0.6,1.9,9.5,9.9,11.5,11.7c5.6,4.9,11.4,13.9,23.9,8C316.8,199.9,333.9,183.9,334.1,183.4z"></path> <path class="st2" d="M374,202.1c6.2-0.5,9.7-5.8,14-9.6c2.1-1.9,10.9-9.8,11.7-11.9l-22.8-22.4c-0.3-0.6,0.7-5.7-4.5-8.4 c-7.1-3.8-14.7,3.4-11.3,10.6c2.5,5.4,8.3,4.6,8.4,4.7l8.1,7.6c1.8,1.3,7,6,8.1,7.6c-1.1,1.7-4.9,5.1-6.5,6.7c-7,7-9.2,4.9-16-1.9 c-1.5-1.5-5.8-5.4-6.7-6.9v-54.5c0.9-1.5,3.4-3.8,4.7-5.3c1.6-1.8,3.2-3.8,4.8-5.6c3.2-3.5,7-7.1,10-10.7c2.8-3.3,6.6-7.7,9.6-10.7 c2.4-2.5,7.6-9.1,10.1-10.6c4.2-0.1,15.7-0.6,19.2,0.1c7.4,1.2,4.1,9.8,5.3,14c1.8,0.6,7.2,0.2,9.4,0.2c0-6.9,1.3-14.3-3.6-19.2 c-6.1-6.1-8.7-5.5-17.3-5.5c1.9-3,8.4-6.1,8.6-14.7c0.1-6.1-5.1-13.3-9-14.3c-1.2,1-1.9,2-3.2,2.9c-0.7,0.6-0.9,0.7-1.5,1.3 l-0.9,0.8c-0.1,0.1-0.2,0.1-0.2,0.2c-0.1,0-0.2,0.1-0.2,0.2l-0.4,0.4c0.8,3,7.7,5.2,3.2,11.4l-17.7,17.5l-16.7,18.6 c-2.4,3.2-6,6.4-8.3,9.5c-2.6,3.5-16,17.7-16.4,18.9v60.1l18.2,16.9C367.4,202.1,370.2,202.3,374,202.1z"></path> <path class="st2" d="M409,142.9c8.3,0,16.6-0.9,20.1-10.9c1.2-3.4,0.6-25.1,0.6-30.4h-26.8c-3.1-2.4-5.4-4.4-9.6-2.8 c-11,4-4.3,19.1,5.3,15.6c0.7-0.3,1.4-0.6,2-1.1l1.7-1.6h5.4c2.4,0.1,5.1,0.1,7.5,0h4.8c0,4.5,0.1,9.2,0,13.8 c-0.1,4.8-2.9,6.8-7.5,6.8c-9.6-0.1-19.3-0.1-28.8,0c-1.4-1-1.6-1.9-3.7-2.7c-1.8-0.7-4.1-0.7-5.8,0c-8.3,3.4-6.3,13.5,0.5,15.4 c4.6,1.3,6.1-0.8,9.5-3h8.8c3.6,4.1,8.1,8.2,12,12.1c6.2,6.2-3.3,10.6-5.8,14.4l6.7,6.9c1.7-1.1,5-4.8,6.6-6.4 c2.7-2.7,3.7-4.5,4.7-8.2C419.7,150.9,409.9,144.2,409,142.9z M390.8,107.6c-1.3-6.8,8.8-8.4,9.9-2 C402,112.5,391.9,113.6,390.8,107.6z"></path> <path class="st2" d="M264.9,149.6c-1.8,3-2.9,6.9-2,10.6c0.7,3.2,2.2,5.9,4.6,8.3c1.6,1.6,5,5.4,6.7,6.5l6.9-6.7 c-2.5-3.8-12-8.2-6-14.3c3.9-4,8.4-8,12.2-12.2l8.8-0.1c3.3,2.2,4.5,4.2,9.1,3.1c7-1.6,9.1-11.9,1-15.4c-5.8-2.5-9.4,2.5-9.7,2.7 c-9.5-0.1-19-0.1-28.6,0c-10.1,0.1-7.9-7.7-7.9-20.4h17.9c0.1,0.1,0.1,0.2,0.4,0.4c5.8,5.9,14.3,0.7,14.3-5.7 c0-3.5-2.3-6.4-5.5-7.7c-4.1-1.7-6.8,0.4-9.8,2.8h-26.8c0,5.4-0.6,27,0.6,30.4c3.4,9.9,11.7,10.9,20.1,10.9 C270.2,144,267.3,145.7,264.9,149.6z M289.2,105.5c1.3,7.5-8.8,7.8-9.9,2.4C277.7,100.9,288,99.2,289.2,105.5z"></path> <path class="st2" d="M296.9,54.2c0.3,2.7,0,2.7,1.3,5.2c5,9.5,19.5,1.4,14.6-7.4c-0.8-1.5-1.6-2.4-3.1-3.3c-2.4-1.5-2.8-1-5.5-1.3 l-9.4-9.2c-1.2-1.3-2.2-1.7-3.2-3.2c1.3-1.9,5.3-5.5,7-7.2c8.6-8.6,9.6-8.4,17.3-0.7c1.6,1.6,6.6,5.8,7.3,7.2v35.2 c-3.2,2.6-3.7,3.7-3.6,8c0.2,5.8,8.8,9.6,13.1,3.4c2.3-3.4,1.2-6.1,1.2-9.8V30.6c-0.1-1.5-1.5-2.4-2.6-3.4c-1-1-1.8-1.9-3-2.7 c-0.6-0.6-5.3-5.9-8.7-8.7c-1.9-1.6-2.9-3.3-7.2-4.2c-9.8-1.9-16,4.6-22.6,11.3l-11.7,11.6C278.7,36.7,294.2,51.5,296.9,54.2z"></path> <path class="st2" d="M346.9,80.3c3.8,6.7,12.9,3.2,13.4-2.6c0.4-4.4-0.4-5.8-3.4-8.3l-0.2-35.2c0.8-1.5,5.7-5.5,7.2-7 c2.4-2.4,5-6.1,8.8-5.8c3.1,0.2,6.3,4.1,8.4,6.1c1.9,1.9,5.9,5.5,7.2,7.4l-12.5,12.4c-2.5,0.3-3-0.2-5.3,1.1 c-9.2,5.3-1.5,19.1,7.9,14.3c5.2-2.7,4.5-8.2,4.7-8.4c2.8-2.7,18.3-17.5,18.8-19.7c-5.2-5.3-19.1-19.5-24.4-22 c-6.2-3-12.2-1.6-17.2,2.9l-8.5,8.6c-7.4,6.1-5.9,5.8-5.9,11.5v35C345.9,74.1,344.9,76.9,346.9,80.3z"></path> <path class="st2" d="M229.7,241.1l-14.7-16h-7.3l19.1,20.7v9.6c0,1,0.5,1.6,1.5,1.6h3c0.9,0,1.5-0.6,1.5-1.6v-9.6l19.1-20.7h-7.3 L229.7,241.1z"></path> <path class="st2" d="M428.1,255.4v-11.1h29.4v11.1c0,1,0.5,1.6,1.5,1.6h3c1,0,1.5-0.6,1.5-1.6v-28.6c0-1-0.5-1.6-1.5-1.6h-3 c-1,0-1.5,0.6-1.5,1.6l0,0V238h-29.4v-11.1c0-1-0.5-1.6-1.5-1.6h-2.9c-0.9,0-1.5,0.6-1.5,1.6l0,0v28.6c0,1,0.5,1.6,1.5,1.6h3 C427.6,257,428.1,256.4,428.1,255.4z"></path> <path class="st2" d="M304.6,249v-15.9c0-5.3-2.4-8-7.3-8h-26.4c-4.9,0-7.3,2.7-7.3,8V249c0,5.3,2.4,8,7.3,8h26.4 C302.1,257,304.6,254.4,304.6,249z M298.7,250.7h-29.3v-19.1h29.4L298.7,250.7z"></path> <path class="st2" d="M350.2,257c4.9,0,7.3-2.7,7.3-8v-22.3c0-1-0.5-1.6-1.5-1.6h-3c-1,0-1.5,0.6-1.5,1.6v23.8h-29.3v-23.8 c0-1-0.5-1.6-1.5-1.6h-2.9c-1,0-1.5,0.6-1.5,1.6V249c0,5.3,2.4,8,7.3,8L350.2,257L350.2,257z"></path> <path class="st2" d="M409,225.2h-38.2c-1,0-1.5,0.6-1.5,1.6v3.2c0,1,0.5,1.6,1.5,1.6h16.1v23.8c0,1,0.5,1.6,1.5,1.6h3 c1,0,1.5-0.6,1.5-1.6v-23.8H409c1,0,1.5-0.6,1.5-1.6v-3.2C410.5,225.7,409.9,225.2,409,225.2z"></path> <path class="st2" d="M220.8,275.8h-9.5v-8.3c0-0.4-0.2-0.6-0.5-0.6h-0.9c-0.4,0-0.5,0.2-0.5,0.6v7.7c0,1.9,0.8,2.8,2.5,2.8h8.9 c0.4,0,0.5-0.2,0.5-0.6v-1.1C221.3,276,221.2,275.8,220.8,275.8z"></path> <path class="st2" d="M461.9,271.3h-9.4v-2.2h11.4c0.4,0,0.5-0.2,0.5-0.6v-1.1c0-0.4-0.2-0.6-0.5-0.6H453c-1.7,0-2.5,0.9-2.5,2.8 v1.1c0,1.9,0.8,2.8,2.5,2.8h9.4v2.2h-11.4c-0.3,0-0.5,0.2-0.5,0.6v1.1c0,0.4,0.2,0.6,0.5,0.6h10.9c1.7,0,2.5-0.9,2.5-2.8v-1.1 C464.4,272.3,463.5,271.3,461.9,271.3z"></path> <path class="st2" d="M441,269.2c0.4,0,0.5-0.2,0.5-0.6v-1.1c0-0.4-0.2-0.6-0.5-0.6h-10.9c-1.7,0-2.5,0.9-2.5,2.8v5.5 c0,1.9,0.8,2.8,2.5,2.8H441c0.4,0,0.5-0.2,0.5-0.6v-1.1c0-0.4-0.2-0.6-0.5-0.6h-11.4v-2.2H441c0.4,0,0.5-0.2,0.5-0.6v-1.1 c0-0.4-0.2-0.6-0.5-0.6h-11.4v-2.2L441,269.2L441,269.2z"></path> <path class="st2" d="M238.1,267c-0.8,0-1.6,0.6-2.2,1.7l-5.8,9.4h2.2l1.3-2.2h8.7l1.3,2.2h2.2l-5.7-9.4 C239.7,267.5,239,267,238.1,267z M235.2,273.6l3.1-4.9l3,4.9H235.2z"></path> <path class="st2" d="M382.5,267h-8.9c-1.7,0-2.5,0.9-2.5,2.8v5.5c0,1.9,0.8,2.8,2.5,2.8h8.9c1.7,0,2.5-0.9,2.5-2.8v-5.5 C385,267.9,384.1,267,382.5,267z M382.9,275.8H373v-6.6h9.9V275.8z"></path> <path class="st2" d="M331.4,267c-0.8,0-1.6,0.6-2.2,1.7l-5.8,9.4h2.2l1.3-2.2h8.7l1.3,2.2h2.2l-5.7-9.4 C332.9,267.5,332.2,267,331.4,267z M328.4,273.6l3.1-4.9l3,4.9H328.4z"></path> <path class="st2" d="M407.8,271.3v-1.7c0-1.9-0.8-2.8-2.5-2.8h-10.9c-0.4,0-0.5,0.2-0.5,0.6v9.9c0,0.4,0.2,0.6,0.5,0.6h1 c0.4,0,0.5-0.2,0.5-0.6v-2.8h9.9v2.8c0,0.4,0.2,0.6,0.5,0.6h1c0.4,0,0.5-0.2,0.5-0.6v-1.7c0-1.1-0.4-1.9-1-2.2 C407.4,273.2,407.8,272.5,407.8,271.3z M405.8,272.5h-9.9v-3.3h9.9V272.5z"></path> <path class="st2" d="M418.2,267h-1c-0.4,0-0.5,0.2-0.5,0.6l0,0v9.9c0,0.4,0.2,0.6,0.5,0.6h1c0.4,0,0.5-0.2,0.5-0.6v-9.9 C418.6,267.2,418.6,267,418.2,267z"></path> <path class="st2" d="M361.7,267h-12.9c-0.4,0-0.5,0.2-0.5,0.6v1.1c0,0.4,0.2,0.6,0.5,0.6h5.5v8.3c0,0.4,0.2,0.6,0.5,0.6h1 c0.4,0,0.5-0.2,0.5-0.6v-8.3h5.5c0.4,0,0.5-0.2,0.5-0.6v-1.1C362.2,267.2,362,267,361.7,267z"></path> <path class="st2" d="M314.6,271.3v-1.7c0-1.9-0.8-2.8-2.5-2.8h-10.9c-0.4,0-0.5,0.2-0.5,0.6v9.9c0,0.4,0.2,0.6,0.5,0.6h1 c0.4,0,0.5-0.2,0.5-0.6v-2.8h9.9v2.8c0,0.4,0.2,0.6,0.5,0.6h1c0.4,0,0.5-0.2,0.5-0.6v-1.7c0-1.1-0.4-1.9-1-2.2 C314.2,273.2,314.6,272.5,314.6,271.3z M312.5,272.5h-9.9v-3.3h9.9V272.5z"></path> <path class="st2" d="M266.4,267h-10.9c-0.4,0-0.5,0.2-0.5,0.6v9.9c0,0.4,0.2,0.6,0.5,0.6h10.9c1.7,0,2.5-0.9,2.5-2.8v-0.6 c0-1.1-0.4-1.9-1-2.2c0.6-0.4,1-1.1,1-2.2v-0.6C268.9,267.9,268.1,267,266.4,267z M266.9,275.8H257v-2.2h9.9V275.8z M266.9,271.3 H257v-2.2h9.9V271.3z"></path> <path class="st2" d="M289.2,267h-8.9c-1.7,0-2.5,0.9-2.5,2.8v5.5c0,1.9,0.8,2.8,2.5,2.8h8.9c1.7,0,2.5-0.9,2.5-2.8v-5.5 C291.8,267.9,290.9,267,289.2,267z M289.7,275.8h-9.9v-6.6h9.9V275.8z"></path> </g> </svg> 